<?xml version="1.0" encoding="UTF-8" standalone="no"?>
<svg
   xmlns:dc="http://purl.org/dc/elements/1.1/"
   xmlns:cc="http://creativecommons.org/ns#"
   xmlns:rdf="http://www.w3.org/1999/02/22-rdf-syntax-ns#"
   xmlns:svg="http://www.w3.org/2000/svg"
   xmlns="http://www.w3.org/2000/svg"
   viewBox="0 0 1056 816"
   height="816"
   width="1056"
   xml:space="preserve"
   id="svg2"
   version="1.1"><metadata
     id="metadata8"><rdf:RDF><cc:Work
         rdf:about=""><dc:format>image/svg+xml</dc:format><dc:type
           rdf:resource="http://purl.org/dc/dcmitype/StillImage" /></cc:Work></rdf:RDF></metadata><defs
     id="defs6" /><g
     transform="matrix(1.3333333,0,0,-1.3333333,0,816)"
     id="g10"><path
       id="path12"
       style="fill:none;stroke:#231f20;stroke-width:0.5;stroke-linecap:butt;stroke-linejoin:miter;stroke-miterlimit:22.92558479;stroke-dasharray:none;stroke-opacity:1"
       d="M 41.69,536.3388 H 688.7891 V 324.0816 L 608.7288,176.8918 455.8334,108.9944 H 267.1095 L 113.1962,171.811 41.69,324.1142 Z" /><path
       id="path14"
       style="fill:none;stroke:#231f20;stroke-width:0.5;stroke-linecap:butt;stroke-linejoin:miter;stroke-miterlimit:22.92558479;stroke-dasharray:none;stroke-opacity:1"
       d="M 41.6625,568.1971 H 266.5259 V 536.4904 H 41.6625 Z" /><path
       id="path16"
       style="fill:#ffffff;fill-opacity:1;fill-rule:evenodd;stroke:#231f20;stroke-width:0.5;stroke-linecap:butt;stroke-linejoin:miter;stroke-miterlimit:22.92558479;stroke-dasharray:none;stroke-opacity:1"
       d="m 266.3127,568.1971 h 190.239 v -57.1349 l -8.6323,-8.6125 H 275.0006 l -8.6879,8.6757 z" /><path
       id="path18"
       style="fill:none;stroke:#231f20;stroke-width:0.5;stroke-linecap:butt;stroke-linejoin:miter;stroke-miterlimit:22.92558479;stroke-dasharray:none;stroke-opacity:1"
       d="M 456.7564,568.1971 H 688.428 V 536.4904 H 456.7564 Z" /><path
       id="path20"
       style="fill:none;stroke:#231f20;stroke-width:0.5;stroke-linecap:butt;stroke-linejoin:miter;stroke-miterlimit:22.92558479;stroke-dasharray:none;stroke-opacity:1"
       d="m 266.3127,510.9066 8.7401,-8.5082 H 447.933 l 8.6187,8.6763 V 344.7323 l -9.6332,-9.6199 H 275.9547 l -9.642,9.6627 z" /><path
       id="path22"
       style="fill:none;stroke:#231f20;stroke-width:0.5;stroke-linecap:butt;stroke-linejoin:miter;stroke-miterlimit:22.92558479;stroke-dasharray:none;stroke-opacity:1"
       d="M 41.8884,323.4362 113.2072,171.8994" /><path
       id="path24"
       style="fill:none;stroke:#231f20;stroke-width:0.5;stroke-linecap:butt;stroke-linejoin:miter;stroke-miterlimit:22.92558479;stroke-dasharray:none;stroke-opacity:1"
       d="m 455.811,109.1622 152.8963,67.8776" /><path
       id="path26"
       style="fill:none;stroke:#231f20;stroke-width:0.5;stroke-linecap:butt;stroke-linejoin:miter;stroke-miterlimit:22.92558479;stroke-dasharray:none;stroke-opacity:1"
       d="M 104.1341,191.3108 H 90.8929 c -7.8145,9.1942 -7.5382,18.0204 0.8289,26.4793 z" /><path
       id="path28"
       style="fill:none;stroke:#231f20;stroke-width:0.5;stroke-linecap:butt;stroke-linejoin:miter;stroke-miterlimit:22.92558479;stroke-dasharray:none;stroke-opacity:1"
       d="m 60.0015,284.8161 -15.8598,34.0648 c -4.0998,-5.0235 -5.1999,-15.2107 6.7575,-17.9288 -4.3424,-10.0095 0.0881,-16.1947 9.1023,-16.136 z" /><path
       id="path30"
       style="fill:none;stroke:#231f20;stroke-width:0.5;stroke-linecap:butt;stroke-linejoin:miter;stroke-miterlimit:22.92558479;stroke-dasharray:none;stroke-opacity:1"
       d="m 761.021,397.8876 v 48.6227 h -72.3407 v -64.1912 h 42.7634 z" /><path
       id="path32"
       style="fill:none;stroke:#231f20;stroke-width:0.5;stroke-linecap:butt;stroke-linejoin:miter;stroke-miterlimit:22.92558479;stroke-dasharray:none;stroke-opacity:1"
       d="m 595.531,171.1463 -25.6674,-11.4018 5.7319,-12.9039 25.6674,11.4018 z m -96.4925,-45.7183 3.2258,1.4329 c 11.1575,0.0862 19.4562,3.7726 29.8588,8.3937 10.4023,4.6207 22.909,10.1763 32.5567,19.3322 l 3.7871,1.6821 6.5421,-14.7271 -3.3664,-1.4953 c -13.3552,-1.0621 -25.9549,-6.6594 -36.4507,-11.3218 -10.4962,-4.6625 -18.8887,-8.3903 -26.5258,-16.6533 l -3.0855,-1.3705 z m -4.0609,1.0511 -25.8077,-11.4642 3.7383,-8.4155 25.8077,11.4642 z m 0,0 -25.8077,-11.4642 1.8068,-4.0674 25.8077,11.4641 z m 100.5534,44.6672 -25.6674,-11.4018 4.6054,-10.3675 25.6674,11.4018 z m 0,0 -25.6674,-11.4018 3.5144,-7.9118 25.6674,11.4018 z m 0,0 -25.6674,-11.4018 2.6659,-6.0015 25.6675,11.4018 z m 0,0 -25.6674,-11.4018 1.8173,-4.0916 25.6674,11.4018 z m 0,0 -25.6674,-11.4018 0.8475,-1.9086 25.6677,11.4021 z M 455.9091,109.1265 608.79,177.0384 634.4875,119.1889 481.6069,51.277 Z" /><text
       id="text42"
       style="font-variant:normal;font-weight:normal;font-size:9.60701847px;font-family:CalistoMT;-inkscape-font-specification:CalistoMT;writing-mode:lr-tb;fill:#231f20;fill-opacity:1;fill-rule:nonzero;stroke:none"
       transform="matrix(0.3763,-0.9265,-0.9265,-0.3763,30.2664,315.3566)"><tspan
         id="tspan34"
         y="0"
         x="0">A</tspan><tspan
         id="tspan36"
         y="0.00060000119"
         x="7.204814 14.112261 21.019707 27.427589 32.730663">CCESO</tspan><tspan
         id="tspan38"
         y="11.089722"
         x="-0.00030000001 6.9071465 14.515905 19.818979 23.325542">COSIN</tspan><tspan
         id="tspan40"
         y="11.089422"
         x="30.724461">A</tspan></text>
<text
       id="text52"
       style="font-variant:normal;font-weight:normal;font-size:9.6070528px;font-family:CalistoMT;-inkscape-font-specification:CalistoMT;writing-mode:lr-tb;fill:#231f20;fill-opacity:1;fill-rule:nonzero;stroke:none"
       transform="matrix(0.4192,-0.9079,-0.9079,-0.4192,65.4089,246.1581)"><tspan
         id="tspan44"
         y="0"
         x="0">A</tspan><tspan
         id="tspan46"
         y="0.00030000167"
         x="7.2048397 14.112311 21.019783 27.427687 32.730782">CCESO</tspan><tspan
         id="tspan48"
         y="11.090361"
         x="0.00030000001 6.4082046 15.717439 22.125343">EMER</tspan><tspan
         id="tspan50"
         y="11.090661"
         x="28.486057 36.392662 42.800568 50.611099 57.51857 61.025146">GENCIA</tspan></text>
<text
       id="text56"
       style="font-variant:normal;font-weight:normal;font-size:9.60700035px;font-family:CalistoMT;-inkscape-font-specification:CalistoMT;writing-mode:lr-tb;fill:#231f20;fill-opacity:1;fill-rule:nonzero;stroke:none"
       transform="matrix(1,0,0,-1,696.0424,401.826)"><tspan
         id="tspan54"
         y="0"
         x="0 5.8586001 13.265597 21.076088 28.684832">BAÑOS</tspan></text>
<path
       id="path58"
       style="fill:none;stroke:#231f20;stroke-width:0.5;stroke-linecap:butt;stroke-linejoin:miter;stroke-miterlimit:22.92558479;stroke-dasharray:none;stroke-opacity:1"
       d="m 761.021,428.9817 v 4.3633 l -30.469,-16.7487 h -35.9918 v -4.3634 h 39.0212 z" /><text
       id="text62"
       style="font-variant:normal;font-weight:normal;font-size:9.6064806px;font-family:CalistoMT;-inkscape-font-specification:CalistoMT;writing-mode:lr-tb;fill:#231f20;fill-opacity:1;fill-rule:nonzero;stroke:none"
       transform="matrix(0.9158,0.4015,0.4015,-0.9158,523.3246,95.7815)"><tspan
         id="tspan60"
         y="0"
         x="0 6.9070597 13.314582 20.221642 26.629164 32.537151 39.44421 42.950577 50.558907">RECEPCION</tspan></text>
<text
       id="text66"
       style="font-variant:normal;font-weight:normal;font-size:9.60700035px;font-family:CalistoMT;-inkscape-font-specification:CalistoMT;writing-mode:lr-tb;fill:#231f20;fill-opacity:1;fill-rule:nonzero;stroke:none"
       transform="matrix(1,0,0,-1,336.9784,521.9391)"><tspan
         id="tspan64"
         y="0"
         x="0 6.4078689 11.710933 18.618366 25.026236 32.423 39.829998 46.737431 50.243984">ESCENARIO</tspan></text>
<text
       id="text70"
       style="font-variant:normal;font-weight:normal;font-size:9.60700035px;font-family:CalistoMT;-inkscape-font-specification:CalistoMT;writing-mode:lr-tb;fill:#231f20;fill-opacity:1;fill-rule:nonzero;stroke:none"
       transform="matrix(1,0,0,-1,487.3226,548.0935)"><tspan
         id="tspan68"
         y="0"
         x="0 3.7946999 11.201697 18.109131 25.919621 29.426176 37.236668 43.644535 50.551968">JARDINERA</tspan></text>
<text
       id="text74"
       style="font-variant:normal;font-weight:normal;font-size:9.60700035px;font-family:CalistoMT;-inkscape-font-specification:CalistoMT;writing-mode:lr-tb;fill:#231f20;fill-opacity:1;fill-rule:nonzero;stroke:none"
       transform="matrix(1,0,0,-1,188.7469,548.0935)"><tspan
         id="tspan72"
         y="0"
         x="0 3.7945001 11.201497 18.108931 25.91942 29.425976 37.236465 43.644337 50.551769">JARDINERA</tspan></text>
<path
       id="path76"
       style="fill:none;stroke:#231f20;stroke-width:0.5;stroke-linecap:butt;stroke-linejoin:miter;stroke-miterlimit:22.92558479;stroke-dasharray:none;stroke-opacity:1"
       d="m 412.67,138.3403 h 29.1778 V 110.9744 H 412.67 Z" /><text
       id="text82"
       style="font-variant:normal;font-weight:normal;font-size:6.86214399px;font-family:CalistoMT;-inkscape-font-specification:CalistoMT;writing-mode:lr-tb;fill:#231f20;fill-opacity:1;fill-rule:nonzero;stroke:none"
       transform="matrix(0.4175,-0.9087,-0.9087,-0.4175,74.1203,269.257)"><tspan
         id="tspan78"
         y="0"
         x="0 3.7879035 8.364953">SER</tspan><tspan
         id="tspan80"
         y="-0.0003000063"
         x="12.611565 17.40134 19.906023 24.839905 27.344587">VICIO</tspan></text>
<text
       id="text86"
       style="font-variant:normal;font-weight:normal;font-size:6.86199999px;font-family:CalistoMT;-inkscape-font-specification:CalistoMT;writing-mode:lr-tb;fill:#231f20;fill-opacity:1;fill-rule:nonzero;stroke:none"
       transform="matrix(0.7725,0,0,-1,414.2024,123.2512)"><tspan
         id="tspan84"
         y="0"
         x="0 4.9337778 9.5107317 15.158158 20.448759 24.8074 30.242104">REGALOS</tspan></text>
<g
       id="g88"><path
         id="path90"
         style="fill:none;stroke:#231f20;stroke-width:0.5;stroke-linecap:butt;stroke-linejoin:miter;stroke-miterlimit:22.92558479;stroke-dasharray:none;stroke-opacity:1"
         d="m 374.6268,160.0642 -0.98,-5.6962 c -0.0966,-0.5647 -0.4079,-1.0423 -0.9051,-1.0423 h -4.0107 c -0.4972,0 -0.8082,0.4776 -0.9051,1.0423 l -0.9799,5.6962 c -0.1922,1.1186 1.0323,1.0423 1.2098,1.0423 h 5.3611 c 0.1775,0 1.4021,0.0766 1.2099,-1.0423 z" /><path
         id="path92"
         style="fill:none;stroke:#231f20;stroke-width:0.5;stroke-linecap:butt;stroke-linejoin:miter;stroke-miterlimit:22.92558479;stroke-dasharray:none;stroke-opacity:1"
         d="m 363.8205,160.0642 -0.9799,-5.6962 c -0.0967,-0.5647 -0.4079,-1.0423 -0.9051,-1.0423 h -4.011 c -0.4969,0 -0.8079,0.4776 -0.9048,1.0423 l -0.98,5.6962 c -0.1922,1.1186 1.0324,1.0423 1.2098,1.0423 h 5.3612 c 0.1775,0 1.402,0.0766 1.2098,-1.0423 z" /><path
         id="path94"
         style="fill:none;stroke:#231f20;stroke-width:0.5;stroke-linecap:butt;stroke-linejoin:miter;stroke-miterlimit:22.92558479;stroke-dasharray:none;stroke-opacity:1"
         d="M 344.2221,182.2184 H 386.318 V 150.7516 H 344.2221 Z" /><path
         id="path96"
         style="fill:none;stroke:#231f20;stroke-width:0.5;stroke-linecap:butt;stroke-linejoin:miter;stroke-miterlimit:22.92558479;stroke-dasharray:none;stroke-opacity:1"
         d="M 349.2448,177.0012 H 381.293 V 163.6041 H 349.2448 Z" /></g><path
       id="path98"
       style="fill:none;stroke:#231f20;stroke-width:0.5;stroke-linecap:butt;stroke-linejoin:miter;stroke-miterlimit:22.92558479;stroke-dasharray:none;stroke-opacity:1"
       d="m 79.0727,281.2431 21.8135,-45.743 -13.1681,-6.2796 -21.8134,45.7432 z" /><text
       id="text102"
       style="font-variant:normal;font-weight:normal;font-size:6.86221981px;font-family:CalistoMT;-inkscape-font-specification:CalistoMT;writing-mode:lr-tb;fill:#231f20;fill-opacity:1;fill-rule:nonzero;stroke:none"
       transform="matrix(0.4419,0.8971,0.8971,-0.4419,642.473,244.3073)"><tspan
         id="tspan100"
         y="0"
         x="0 3.7879453 8.3650455 12.611704 17.401533 19.906242 24.840179 27.344889">SERVICIO</tspan></text>
<path
       id="path104"
       style="fill:none;stroke:#231f20;stroke-width:0.5;stroke-linecap:butt;stroke-linejoin:miter;stroke-miterlimit:22.92558479;stroke-dasharray:none;stroke-opacity:1"
       d="m 625.5836,241.5067 24.031,44.6182 12.8444,-6.918 -24.031,-44.6179 z" /><text
       id="text108"
       style="font-variant:normal;font-weight:normal;font-size:6.86218262px;font-family:CalistoMT;-inkscape-font-specification:CalistoMT;writing-mode:lr-tb;fill:#231f20;fill-opacity:1;fill-rule:nonzero;stroke:none"
       transform="matrix(0.7725,-0.0073,-0.0094,-1,341.1485,-31.6002)"><tspan
         id="tspan106"
         y="0"
         x="0 6.6494551 11.226531 15.014456 20.305199 22.055056 27.63401 32.211086 33.960941 39.539898 45.043369 49.443817 54.377728 58.954803">MESA DE DULCES</tspan></text>
<path
       id="path110"
       style="fill:none;stroke:#231f20;stroke-width:0.5;stroke-linecap:butt;stroke-linejoin:miter;stroke-miterlimit:22.92558479;stroke-dasharray:none;stroke-opacity:1"
       d="m 335.5512,-15.7425 61.0889,0.072 0.0323,-27.3657 -61.0889,-0.0722 z" /><text
       id="text114"
       style="font-variant:normal;font-weight:normal;font-size:14.54300022px;font-family:Century725BT;-inkscape-font-specification:Century725BT-RomanCondensed;writing-mode:lr-tb;fill:#231f20;fill-opacity:1;fill-rule:nonzero;stroke:#231f20;stroke-width:0.5;stroke-linecap:butt;stroke-linejoin:miter;stroke-miterlimit:22.92558479;stroke-dasharray:none;stroke-opacity:1"
       transform="matrix(1,0,0,-1,556.2122,359.6287)"><tspan
         id="tspan112"
         y="0"
         x="0 6.3262048">11</tspan></text>
<text
       id="text118"
       style="font-variant:normal;font-weight:normal;font-size:14.54300022px;font-family:Century725BT;-inkscape-font-specification:Century725BT-RomanCondensed;writing-mode:lr-tb;fill:#231f20;fill-opacity:1;fill-rule:nonzero;stroke:#231f20;stroke-width:0.5;stroke-linecap:butt;stroke-linejoin:miter;stroke-miterlimit:22.92558479;stroke-dasharray:none;stroke-opacity:1"
       transform="matrix(1,0,0,-1,484.5986,360.1933)"><tspan
         id="tspan116"
         y="0"
         x="0 6.3262048">12</tspan></text>
<text
       id="text122"
       style="font-variant:normal;font-weight:normal;font-size:14.54300022px;font-family:Century725BT;-inkscape-font-specification:Century725BT-RomanCondensed;writing-mode:lr-tb;fill:#231f20;fill-opacity:1;fill-rule:nonzero;stroke:#231f20;stroke-width:0.5;stroke-linecap:butt;stroke-linejoin:miter;stroke-miterlimit:22.92558479;stroke-dasharray:none;stroke-opacity:1"
       transform="matrix(1,0,0,-1,141.7728,359.4767)"><tspan
         id="tspan120"
         y="0"
         x="0 6.3262048">14</tspan></text>
<text
       id="text126"
       style="font-variant:normal;font-weight:normal;font-size:14.54300022px;font-family:Century725BT;-inkscape-font-specification:Century725BT-RomanCondensed;writing-mode:lr-tb;fill:#231f20;fill-opacity:1;fill-rule:nonzero;stroke:#231f20;stroke-width:0.5;stroke-linecap:butt;stroke-linejoin:miter;stroke-miterlimit:22.92558479;stroke-dasharray:none;stroke-opacity:1"
       transform="matrix(1,0,0,-1,211.1244,360.5423)"><tspan
         id="tspan124"
         y="0"
         x="0 6.3262048">13</tspan></text>
<path
       id="path128"
       style="fill:none;stroke:#231f20;stroke-width:0.5;stroke-linecap:butt;stroke-linejoin:miter;stroke-miterlimit:22.92558479;stroke-dasharray:none;stroke-opacity:1"
       d="m 144.3523,282.1292 -5.9502,-1.0236 c -0.5901,-0.1015 -1.0887,-0.4258 -1.0887,-0.9454 v -4.1899 c 0,-0.5196 0.4989,-0.8438 1.0887,-0.9453 l 5.9502,-1.0236 c 1.1682,-0.2007 1.0886,1.0786 1.0886,1.2637 v 5.6004 c 0,0.1851 0.0799,1.4644 -1.0886,1.2637 z m 0,9.3665 -5.9502,-1.0236 c -0.5901,-0.1015 -1.0887,-0.4258 -1.0887,-0.9454 v -4.1898 c 0,-0.5196 0.4989,-0.8439 1.0887,-0.9454 l 5.9502,-1.0233 c 1.1682,-0.201 1.0886,1.0783 1.0886,1.2634 v 5.6004 c 0,0.1854 0.0799,1.4644 -1.0886,1.2637 z m 0,9.3665 -5.9502,-1.0236 c -0.5901,-0.1012 -1.0887,-0.4255 -1.0887,-0.9453 v -4.1896 c 0,-0.5199 0.4989,-0.8442 1.0887,-0.9457 l 5.9502,-1.0233 c 1.1682,-0.2007 1.0886,1.0783 1.0886,1.2637 v 5.6001 c 0,0.1854 0.0799,1.4644 -1.0886,1.2637 z m 34.3024,-18.733 5.9502,-1.0236 c 0.5902,-0.1015 1.0888,-0.4258 1.0888,-0.9454 v -4.1899 c 0,-0.5196 -0.4989,-0.8438 -1.0888,-0.9453 l -5.9502,-1.0236 c -1.1682,-0.2007 -1.0885,1.0786 -1.0885,1.2637 v 5.6004 c 0,0.1851 -0.08,1.4644 1.0885,1.2637 z m 0,9.3665 5.9502,-1.0236 c 0.5902,-0.1015 1.0888,-0.4258 1.0888,-0.9454 v -4.1898 c 0,-0.5196 -0.4989,-0.8439 -1.0888,-0.9454 l -5.9502,-1.0233 c -1.1682,-0.201 -1.0885,1.0783 -1.0885,1.2634 v 5.6004 c 0,0.1854 -0.08,1.4644 1.0885,1.2637 z m 0,9.3665 5.9502,-1.0236 c 0.5902,-0.1012 1.0888,-0.4255 1.0888,-0.9453 v -4.1896 c 0,-0.5199 -0.4989,-0.8442 -1.0888,-0.9457 l -5.9502,-1.0233 c -1.1682,-0.2007 -1.0885,1.0783 -1.0885,1.2637 v 5.6001 c 0,0.1854 -0.08,1.4644 1.0885,1.2637 z m -19.5443,-30.7599 -1.0233,-5.9502 c -0.1015,-0.5901 -0.4258,-1.0888 -0.9454,-1.0888 h -4.1899 c -0.5196,0 -0.8439,0.4989 -0.9453,1.0888 l -1.0236,5.9502 c -0.2007,1.1682 1.0783,1.0885 1.2637,1.0885 h 5.6004 c 0.1851,0 1.4643,0.08 1.2634,-1.0885 z m 11.6773,0 -1.0236,-5.9502 c -0.1015,-0.5901 -0.4258,-1.0888 -0.9454,-1.0888 h -4.1898 c -0.5196,0 -0.8439,0.4989 -0.9454,1.0888 l -1.0236,5.9502 c -0.2007,1.1682 1.0786,1.0885 1.2637,1.0885 h 5.6004 c 0.1851,0 1.4644,0.08 1.2637,-1.0885 z m 5.955,32.5687 v -30.4784 h -30.4784 v 30.4784 z m -14.0828,1.857 1.0233,5.9502 c 0.1015,0.5901 0.4258,1.0888 0.9454,1.0888 h 4.1899 c 0.5195,0 0.8438,-0.4989 0.9453,-1.0888 l 1.0236,-5.9502 c 0.2007,-1.1682 -1.0783,-1.0885 -1.2637,-1.0885 h -5.6004 c -0.1851,0 -1.4644,-0.08 -1.2634,1.0885 z m -11.6773,0 1.0236,5.9502 c 0.1015,0.5901 0.4257,1.0888 0.9453,1.0888 h 4.1899 c 0.5196,0 0.8439,-0.4989 0.9454,-1.0888 l 1.0236,-5.9502 c 0.2007,-1.1682 -1.0786,-1.0885 -1.2637,-1.0885 h -5.6004 c -0.1851,0 -1.4644,-0.08 -1.2637,1.0885 z" /><path
       id="path130"
       style="fill:none;stroke:#231f20;stroke-width:0.5;stroke-linecap:butt;stroke-linejoin:miter;stroke-miterlimit:22.92558479;stroke-dasharray:none;stroke-opacity:1"
       d="m 214.5331,282.1292 -5.9502,-1.0236 c -0.5902,-0.1015 -1.0888,-0.4258 -1.0888,-0.9454 v -4.1899 c 0,-0.5196 0.4989,-0.8438 1.0888,-0.9453 l 5.9502,-1.0236 c 1.1681,-0.2007 1.0885,1.0786 1.0885,1.2637 v 5.6004 c 0,0.1851 0.0799,1.4644 -1.0885,1.2637 z m 0,9.3665 -5.9502,-1.0236 c -0.5902,-0.1015 -1.0888,-0.4258 -1.0888,-0.9454 v -4.1898 c 0,-0.5196 0.4989,-0.8439 1.0888,-0.9454 l 5.9502,-1.0233 c 1.1681,-0.201 1.0885,1.0783 1.0885,1.2634 v 5.6004 c 0,0.1854 0.0799,1.4644 -1.0885,1.2637 z m 0,9.3665 -5.9502,-1.0236 c -0.5902,-0.1012 -1.0888,-0.4255 -1.0888,-0.9453 v -4.1896 c 0,-0.5199 0.4989,-0.8442 1.0888,-0.9457 l 5.9502,-1.0233 c 1.1681,-0.2007 1.0885,1.0783 1.0885,1.2637 v 5.6001 c 0,0.1854 0.0799,1.4644 -1.0885,1.2637 z m 34.3023,-18.733 5.9502,-1.0236 c 0.5902,-0.1015 1.0888,-0.4258 1.0888,-0.9454 v -4.1899 c 0,-0.5196 -0.4989,-0.8438 -1.0888,-0.9453 l -5.9502,-1.0236 c -1.1682,-0.2007 -1.0885,1.0786 -1.0885,1.2637 v 5.6004 c 0,0.1851 -0.0799,1.4644 1.0885,1.2637 z m 0,9.3665 5.9502,-1.0236 c 0.5902,-0.1015 1.0888,-0.4258 1.0888,-0.9454 v -4.1898 c 0,-0.5196 -0.4989,-0.8439 -1.0888,-0.9454 l -5.9502,-1.0233 c -1.1682,-0.201 -1.0885,1.0783 -1.0885,1.2634 v 5.6004 c 0,0.1854 -0.0799,1.4644 1.0885,1.2637 z m 0,9.3665 5.9502,-1.0236 c 0.5902,-0.1012 1.0888,-0.4255 1.0888,-0.9453 v -4.1896 c 0,-0.5199 -0.4989,-0.8442 -1.0888,-0.9457 l -5.9502,-1.0233 c -1.1682,-0.2007 -1.0885,1.0783 -1.0885,1.2637 v 5.6001 c 0,0.1854 -0.0799,1.4644 1.0885,1.2637 z m -19.5443,-30.7599 -1.0233,-5.9502 c -0.1015,-0.5901 -0.4258,-1.0888 -0.9454,-1.0888 h -4.1899 c -0.5196,0 -0.8438,0.4989 -0.9453,1.0888 l -1.0236,5.9502 c -0.2007,1.1682 1.0783,1.0885 1.2637,1.0885 h 5.6004 c 0.1851,0 1.4644,0.08 1.2634,-1.0885 z m 11.6773,0 -1.0236,-5.9502 c -0.1015,-0.5901 -0.4257,-1.0888 -0.9453,-1.0888 h -4.1899 c -0.5196,0 -0.8439,0.4989 -0.9454,1.0888 l -1.0236,5.9502 c -0.2007,1.1682 1.0786,1.0885 1.2637,1.0885 h 5.6004 c 0.1851,0 1.4644,0.08 1.2637,-1.0885 z m 5.955,32.5687 V 272.1926 H 216.445 v 30.4784 z m -14.0828,1.857 1.0233,5.9502 c 0.1015,0.5901 0.4258,1.0888 0.9454,1.0888 h 4.1899 c 0.5196,0 0.8439,-0.4989 0.9453,-1.0888 l 1.0236,-5.9502 c 0.2007,-1.1682 -1.0783,-1.0885 -1.2637,-1.0885 h -5.6004 c -0.1851,0 -1.4643,-0.08 -1.2634,1.0885 z m -11.6773,0 1.0236,5.9502 c 0.1015,0.5901 0.4258,1.0888 0.9454,1.0888 h 4.1898 c 0.5196,0 0.8439,-0.4989 0.9454,-1.0888 l 1.0236,-5.9502 c 0.2007,-1.1682 -1.0786,-1.0885 -1.2637,-1.0885 h -5.6004 c -0.1851,0 -1.4644,-0.08 -1.2637,1.0885 z" /><path
       id="path132"
       style="fill:none;stroke:#231f20;stroke-width:0.5;stroke-linecap:butt;stroke-linejoin:miter;stroke-miterlimit:22.92558479;stroke-dasharray:none;stroke-opacity:1"
       d="m 284.2832,282.1292 -5.9502,-1.0236 c -0.5902,-0.1015 -1.0888,-0.4258 -1.0888,-0.9454 v -4.1899 c 0,-0.5196 0.4989,-0.8438 1.0888,-0.9453 l 5.9502,-1.0236 c 1.1682,-0.2007 1.0885,1.0786 1.0885,1.2637 v 5.6004 c 0,0.1851 0.08,1.4644 -1.0885,1.2637 z m 0,9.3665 -5.9502,-1.0236 c -0.5902,-0.1015 -1.0888,-0.4258 -1.0888,-0.9454 v -4.1898 c 0,-0.5196 0.4989,-0.8439 1.0888,-0.9454 l 5.9502,-1.0233 c 1.1682,-0.201 1.0885,1.0783 1.0885,1.2634 v 5.6004 c 0,0.1854 0.08,1.4644 -1.0885,1.2637 z m 0,9.3665 -5.9502,-1.0236 c -0.5902,-0.1012 -1.0888,-0.4255 -1.0888,-0.9453 v -4.1896 c 0,-0.5199 0.4989,-0.8442 1.0888,-0.9457 l 5.9502,-1.0233 c 1.1682,-0.2007 1.0885,1.0783 1.0885,1.2637 v 5.6001 c 0,0.1854 0.08,1.4644 -1.0885,1.2637 z m 34.3023,-18.733 5.9502,-1.0236 c 0.5902,-0.1015 1.0888,-0.4258 1.0888,-0.9454 v -4.1899 c 0,-0.5196 -0.4989,-0.8438 -1.0888,-0.9453 l -5.9502,-1.0236 c -1.1681,-0.2007 -1.0885,1.0786 -1.0885,1.2637 v 5.6004 c 0,0.1851 -0.0799,1.4644 1.0885,1.2637 z m 0,9.3665 5.9502,-1.0236 c 0.5902,-0.1015 1.0888,-0.4258 1.0888,-0.9454 v -4.1898 c 0,-0.5196 -0.4989,-0.8439 -1.0888,-0.9454 l -5.9502,-1.0233 c -1.1681,-0.201 -1.0885,1.0783 -1.0885,1.2634 v 5.6004 c 0,0.1854 -0.0799,1.4644 1.0885,1.2637 z m 0,9.3665 5.9502,-1.0236 c 0.5902,-0.1012 1.0888,-0.4255 1.0888,-0.9453 v -4.1896 c 0,-0.5199 -0.4989,-0.8442 -1.0888,-0.9457 l -5.9502,-1.0233 c -1.1681,-0.2007 -1.0885,1.0783 -1.0885,1.2637 v 5.6001 c 0,0.1854 -0.0799,1.4644 1.0885,1.2637 z m -19.5443,-30.7599 -1.0233,-5.9502 c -0.1015,-0.5901 -0.4257,-1.0888 -0.9453,-1.0888 h -4.1899 c -0.5196,0 -0.8439,0.4989 -0.9454,1.0888 l -1.0236,5.9502 c -0.2007,1.1682 1.0783,1.0885 1.2637,1.0885 h 5.6004 c 0.1851,0 1.4644,0.08 1.2634,-1.0885 z m 11.6774,0 -1.0236,-5.9502 c -0.1015,-0.5901 -0.4258,-1.0888 -0.9454,-1.0888 h -4.1899 c -0.5196,0 -0.8439,0.4989 -0.9453,1.0888 l -1.0236,5.9502 c -0.2007,1.1682 1.0786,1.0885 1.2637,1.0885 h 5.6004 c 0.1851,0 1.4643,0.08 1.2637,-1.0885 z m 5.955,32.5687 v -30.4784 h -30.4784 v 30.4784 z m -14.0828,1.857 1.0233,5.9502 c 0.1015,0.5901 0.4257,1.0888 0.9453,1.0888 h 4.1899 c 0.5196,0 0.8439,-0.4989 0.9454,-1.0888 l 1.0236,-5.9502 c 0.2007,-1.1682 -1.0783,-1.0885 -1.2637,-1.0885 h -5.6004 c -0.1851,0 -1.4644,-0.08 -1.2634,1.0885 z m -11.6774,0 1.0236,5.9502 c 0.1015,0.5901 0.4258,1.0888 0.9454,1.0888 h 4.1899 c 0.5196,0 0.8439,-0.4989 0.9453,-1.0888 l 1.0236,-5.9502 c 0.2007,-1.1682 -1.0786,-1.0885 -1.2637,-1.0885 h -5.6004 c -0.1851,0 -1.4643,-0.08 -1.2637,1.0885 z" /><path
       id="path134"
       style="fill:none;stroke:#231f20;stroke-width:0.5;stroke-linecap:butt;stroke-linejoin:miter;stroke-miterlimit:22.92558479;stroke-dasharray:none;stroke-opacity:1"
       d="m 408.4356,282.1292 -5.9502,-1.0236 c -0.5902,-0.1015 -1.0888,-0.4258 -1.0888,-0.9454 v -4.1899 c 0,-0.5196 0.4989,-0.8438 1.0888,-0.9453 l 5.9502,-1.0236 c 1.1681,-0.2007 1.0885,1.0786 1.0885,1.2637 v 5.6004 c 0,0.1851 0.0799,1.4644 -1.0885,1.2637 z m 0,9.3665 -5.9502,-1.0236 c -0.5902,-0.1015 -1.0888,-0.4258 -1.0888,-0.9454 v -4.1898 c 0,-0.5196 0.4989,-0.8439 1.0888,-0.9454 l 5.9502,-1.0233 c 1.1681,-0.201 1.0885,1.0783 1.0885,1.2634 v 5.6004 c 0,0.1854 0.0799,1.4644 -1.0885,1.2637 z m 0,9.3665 -5.9502,-1.0236 c -0.5902,-0.1012 -1.0888,-0.4255 -1.0888,-0.9453 v -4.1896 c 0,-0.5199 0.4989,-0.8442 1.0888,-0.9457 l 5.9502,-1.0233 c 1.1681,-0.2007 1.0885,1.0783 1.0885,1.2637 v 5.6001 c 0,0.1854 0.0799,1.4644 -1.0885,1.2637 z m 34.3023,-18.733 5.9502,-1.0236 c 0.5902,-0.1015 1.0888,-0.4258 1.0888,-0.9454 v -4.1899 c 0,-0.5196 -0.4989,-0.8438 -1.0888,-0.9453 l -5.9502,-1.0236 c -1.1681,-0.2007 -1.0885,1.0786 -1.0885,1.2637 v 5.6004 c 0,0.1851 -0.0799,1.4644 1.0885,1.2637 z m 0,9.3665 5.9502,-1.0236 c 0.5902,-0.1015 1.0888,-0.4258 1.0888,-0.9454 v -4.1898 c 0,-0.5196 -0.4989,-0.8439 -1.0888,-0.9454 l -5.9502,-1.0233 c -1.1681,-0.201 -1.0885,1.0783 -1.0885,1.2634 v 5.6004 c 0,0.1854 -0.0799,1.4644 1.0885,1.2637 z m 0,9.3665 5.9502,-1.0236 c 0.5902,-0.1012 1.0888,-0.4255 1.0888,-0.9453 v -4.1896 c 0,-0.5199 -0.4989,-0.8442 -1.0888,-0.9457 l -5.9502,-1.0233 c -1.1681,-0.2007 -1.0885,1.0783 -1.0885,1.2637 v 5.6001 c 0,0.1854 -0.0799,1.4644 1.0885,1.2637 z m -19.5443,-30.7599 -1.0233,-5.9502 c -0.1015,-0.5901 -0.4258,-1.0888 -0.9454,-1.0888 h -4.1898 c -0.5196,0 -0.8439,0.4989 -0.9454,1.0888 l -1.0236,5.9502 c -0.2007,1.1682 1.0783,1.0885 1.2637,1.0885 h 5.6004 c 0.1851,0 1.4644,0.08 1.2634,-1.0885 z m 11.6773,0 -1.0236,-5.9502 c -0.1014,-0.5901 -0.4257,-1.0888 -0.9453,-1.0888 h -4.1899 c -0.5196,0 -0.8439,0.4989 -0.9454,1.0888 l -1.0236,5.9502 c -0.2006,1.1682 1.0786,1.0885 1.2637,1.0885 h 5.6004 c 0.1851,0 1.4644,0.08 1.2637,-1.0885 z m 5.9551,32.5687 v -30.4784 h -30.4784 v 30.4784 z m -14.0829,1.857 1.0234,5.9502 c 0.1014,0.5901 0.4257,1.0888 0.9453,1.0888 h 4.1899 c 0.5196,0 0.8439,-0.4989 0.9454,-1.0888 l 1.0235,-5.9502 c 0.2007,-1.1682 -1.0783,-1.0885 -1.2636,-1.0885 h -5.6004 c -0.1852,0 -1.4644,-0.08 -1.2635,1.0885 z m -11.6773,0 1.0236,5.9502 c 0.1015,0.5901 0.4258,1.0888 0.9454,1.0888 h 4.1899 c 0.5196,0 0.8438,-0.4989 0.9453,-1.0888 l 1.0236,-5.9502 c 0.2007,-1.1682 -1.0786,-1.0885 -1.2637,-1.0885 h -5.6004 c -0.1851,0 -1.4644,-0.08 -1.2637,1.0885 z" /><text
       id="text138"
       style="font-variant:normal;font-weight:normal;font-size:14.54300022px;font-family:Century725BT;-inkscape-font-specification:Century725BT-RomanCondensed;writing-mode:lr-tb;fill:#231f20;fill-opacity:1;fill-rule:nonzero;stroke:#231f20;stroke-width:0.5;stroke-linecap:butt;stroke-linejoin:miter;stroke-miterlimit:22.92558479;stroke-dasharray:none;stroke-opacity:1"
       transform="matrix(1,0,0,-1,411.1651,290.2221)"><tspan
         id="tspan136"
         y="0"
         x="0 6.3262048">07</tspan></text>
<text
       id="text142"
       style="font-variant:normal;font-weight:normal;font-size:14.54300022px;font-family:Century725BT;-inkscape-font-specification:Century725BT-RomanCondensed;writing-mode:lr-tb;fill:#231f20;fill-opacity:1;fill-rule:nonzero;stroke:#231f20;stroke-width:0.5;stroke-linecap:butt;stroke-linejoin:miter;stroke-miterlimit:22.92558479;stroke-dasharray:none;stroke-opacity:1"
       transform="matrix(1,0,0,-1,287.202,290.037)"><tspan
         id="tspan140"
         y="0"
         x="0 6.3262048">08</tspan></text>
<text
       id="text146"
       style="font-variant:normal;font-weight:normal;font-size:14.54300022px;font-family:Century725BT;-inkscape-font-specification:Century725BT-RomanCondensed;writing-mode:lr-tb;fill:#231f20;fill-opacity:1;fill-rule:nonzero;stroke:#231f20;stroke-width:0.5;stroke-linecap:butt;stroke-linejoin:miter;stroke-miterlimit:22.92558479;stroke-dasharray:none;stroke-opacity:1"
       transform="matrix(1,0,0,-1,148.1805,290.3241)"><tspan
         id="tspan144"
         y="0"
         x="0 6.3262048">10</tspan></text>
<text
       id="text150"
       style="font-variant:normal;font-weight:normal;font-size:14.54300022px;font-family:Century725BT;-inkscape-font-specification:Century725BT-RomanCondensed;writing-mode:lr-tb;fill:#231f20;fill-opacity:1;fill-rule:nonzero;stroke:#231f20;stroke-width:0.5;stroke-linecap:butt;stroke-linejoin:miter;stroke-miterlimit:22.92558479;stroke-dasharray:none;stroke-opacity:1"
       transform="matrix(1,0,0,-1,217.0174,289.7589)"><tspan
         id="tspan148"
         y="0"
         x="0 6.3262048">09</tspan></text>
<path
       id="path152"
       style="fill:none;stroke:#231f20;stroke-width:0.5;stroke-linecap:butt;stroke-linejoin:miter;stroke-miterlimit:22.92558479;stroke-dasharray:none;stroke-opacity:1"
       d="m 478.1523,282.1292 -5.9502,-1.0236 c -0.5902,-0.1015 -1.0888,-0.4258 -1.0888,-0.9454 v -4.1899 c 0,-0.5196 0.4989,-0.8438 1.0888,-0.9453 l 5.9502,-1.0236 c 1.1681,-0.2007 1.0885,1.0786 1.0885,1.2637 v 5.6004 c 0,0.1851 0.0799,1.4644 -1.0885,1.2637 z m 0,9.3665 -5.9502,-1.0236 c -0.5902,-0.1015 -1.0888,-0.4258 -1.0888,-0.9454 v -4.1898 c 0,-0.5196 0.4989,-0.8439 1.0888,-0.9454 l 5.9502,-1.0233 c 1.1681,-0.201 1.0885,1.0783 1.0885,1.2634 v 5.6004 c 0,0.1854 0.0799,1.4644 -1.0885,1.2637 z m 0,9.3665 -5.9502,-1.0236 c -0.5902,-0.1012 -1.0888,-0.4255 -1.0888,-0.9453 v -4.1896 c 0,-0.5199 0.4989,-0.8442 1.0888,-0.9457 l 5.9502,-1.0233 c 1.1681,-0.2007 1.0885,1.0783 1.0885,1.2637 v 5.6001 c 0,0.1854 0.0799,1.4644 -1.0885,1.2637 z m 34.3023,-18.733 5.9502,-1.0236 c 0.5902,-0.1015 1.0888,-0.4258 1.0888,-0.9454 v -4.1899 c 0,-0.5196 -0.4989,-0.8438 -1.0888,-0.9453 l -5.9502,-1.0236 c -1.1681,-0.2007 -1.0885,1.0786 -1.0885,1.2637 v 5.6004 c 0,0.1851 -0.0799,1.4644 1.0885,1.2637 z m 0,9.3665 5.9502,-1.0236 c 0.5902,-0.1015 1.0888,-0.4258 1.0888,-0.9454 v -4.1898 c 0,-0.5196 -0.4989,-0.8439 -1.0888,-0.9454 l -5.9502,-1.0233 c -1.1681,-0.201 -1.0885,1.0783 -1.0885,1.2634 v 5.6004 c 0,0.1854 -0.0799,1.4644 1.0885,1.2637 z m 0,9.3665 5.9502,-1.0236 c 0.5902,-0.1012 1.0888,-0.4255 1.0888,-0.9453 v -4.1896 c 0,-0.5199 -0.4989,-0.8442 -1.0888,-0.9457 l -5.9502,-1.0233 c -1.1681,-0.2007 -1.0885,1.0783 -1.0885,1.2637 v 5.6001 c 0,0.1854 -0.0799,1.4644 1.0885,1.2637 z m -19.5443,-30.7599 -1.0233,-5.9502 c -0.1015,-0.5901 -0.4258,-1.0888 -0.9454,-1.0888 h -4.1899 c -0.5195,0 -0.8438,0.4989 -0.9453,1.0888 l -1.0236,5.9502 c -0.2007,1.1682 1.0783,1.0885 1.2637,1.0885 h 5.6004 c 0.1851,0 1.4644,0.08 1.2634,-1.0885 z m 11.6773,0 -1.0236,-5.9502 c -0.1014,-0.5901 -0.4257,-1.0888 -0.9453,-1.0888 h -4.1899 c -0.5196,0 -0.8439,0.4989 -0.9454,1.0888 l -1.0236,5.9502 c -0.2007,1.1682 1.0786,1.0885 1.2637,1.0885 h 5.6004 c 0.1851,0 1.4644,0.08 1.2637,-1.0885 z m 5.955,32.5687 v -30.4784 h -30.4783 v 30.4784 z m -14.0828,1.857 1.0233,5.9502 c 0.1015,0.5901 0.4258,1.0888 0.9454,1.0888 h 4.1899 c 0.5196,0 0.8439,-0.4989 0.9453,-1.0888 l 1.0236,-5.9502 c 0.2007,-1.1682 -1.0783,-1.0885 -1.2636,-1.0885 h -5.6005 c -0.1851,0 -1.4643,-0.08 -1.2634,1.0885 z m -11.6773,0 1.0236,5.9502 c 0.1015,0.5901 0.4258,1.0888 0.9454,1.0888 h 4.1899 c 0.5195,0 0.8438,-0.4989 0.9453,-1.0888 l 1.0236,-5.9502 c 0.2007,-1.1682 -1.0786,-1.0885 -1.2637,-1.0885 h -5.6004 c -0.1851,0 -1.4644,-0.08 -1.2637,1.0885 z" /><path
       id="path154"
       style="fill:none;stroke:#231f20;stroke-width:0.5;stroke-linecap:butt;stroke-linejoin:miter;stroke-miterlimit:22.92558479;stroke-dasharray:none;stroke-opacity:1"
       d="m 548.833,282.1292 -5.9502,-1.0236 c -0.5901,-0.1015 -1.0888,-0.4258 -1.0888,-0.9454 v -4.1899 c 0,-0.5196 0.4989,-0.8438 1.0888,-0.9453 l 5.9502,-1.0236 c 1.1682,-0.2007 1.0885,1.0786 1.0885,1.2637 v 5.6004 c 0,0.1851 0.08,1.4644 -1.0885,1.2637 z m 0,9.3665 -5.9502,-1.0236 c -0.5901,-0.1015 -1.0888,-0.4258 -1.0888,-0.9454 v -4.1898 c 0,-0.5196 0.4989,-0.8439 1.0888,-0.9454 l 5.9502,-1.0233 c 1.1682,-0.201 1.0885,1.0783 1.0885,1.2634 v 5.6004 c 0,0.1854 0.08,1.4644 -1.0885,1.2637 z m 0,9.3665 -5.9502,-1.0236 c -0.5901,-0.1012 -1.0888,-0.4255 -1.0888,-0.9453 v -4.1896 c 0,-0.5199 0.4989,-0.8442 1.0888,-0.9457 l 5.9502,-1.0233 c 1.1682,-0.2007 1.0885,1.0783 1.0885,1.2637 v 5.6001 c 0,0.1854 0.08,1.4644 -1.0885,1.2637 z m 34.3024,-18.733 5.9502,-1.0236 c 0.5901,-0.1015 1.0888,-0.4258 1.0888,-0.9454 v -4.1899 c 0,-0.5196 -0.4989,-0.8438 -1.0888,-0.9453 l -5.9502,-1.0236 c -1.1682,-0.2007 -1.0885,1.0786 -1.0885,1.2637 v 5.6004 c 0,0.1851 -0.08,1.4644 1.0885,1.2637 z m 0,9.3665 5.9502,-1.0236 c 0.5901,-0.1015 1.0888,-0.4258 1.0888,-0.9454 v -4.1898 c 0,-0.5196 -0.4989,-0.8439 -1.0888,-0.9454 l -5.9502,-1.0233 c -1.1682,-0.201 -1.0885,1.0783 -1.0885,1.2634 v 5.6004 c 0,0.1854 -0.08,1.4644 1.0885,1.2637 z m 0,9.3665 5.9502,-1.0236 c 0.5901,-0.1012 1.0888,-0.4255 1.0888,-0.9453 v -4.1896 c 0,-0.5199 -0.4989,-0.8442 -1.0888,-0.9457 l -5.9502,-1.0233 c -1.1682,-0.2007 -1.0885,1.0783 -1.0885,1.2637 v 5.6001 c 0,0.1854 -0.08,1.4644 1.0885,1.2637 z m -19.5443,-30.7599 -1.0234,-5.9502 c -0.1014,-0.5901 -0.4257,-1.0888 -0.9453,-1.0888 h -4.1899 c -0.5196,0 -0.8439,0.4989 -0.9454,1.0888 l -1.0235,5.9502 c -0.2007,1.1682 1.0783,1.0885 1.2636,1.0885 h 5.6005 c 0.1851,0 1.4643,0.08 1.2634,-1.0885 z m 11.6773,0 -1.0236,-5.9502 c -0.1015,-0.5901 -0.4258,-1.0888 -0.9454,-1.0888 h -4.1899 c -0.5195,0 -0.8438,0.4989 -0.9453,1.0888 l -1.0236,5.9502 c -0.2007,1.1682 1.0786,1.0885 1.2637,1.0885 h 5.6004 c 0.1851,0 1.4644,0.08 1.2637,-1.0885 z m 5.955,32.5687 V 272.1926 H 550.745 v 30.4784 z m -14.0828,1.857 1.0233,5.9502 c 0.1015,0.5901 0.4258,1.0888 0.9454,1.0888 h 4.1898 c 0.5196,0 0.8439,-0.4989 0.9454,-1.0888 l 1.0236,-5.9502 c 0.2007,-1.1682 -1.0783,-1.0885 -1.2637,-1.0885 h -5.6004 c -0.1851,0 -1.4644,-0.08 -1.2634,1.0885 z m -11.6773,0 1.0236,5.9502 c 0.1014,0.5901 0.4257,1.0888 0.9453,1.0888 h 4.1899 c 0.5196,0 0.8439,-0.4989 0.9454,-1.0888 l 1.0236,-5.9502 c 0.2006,-1.1682 -1.0786,-1.0885 -1.2637,-1.0885 h -5.6004 c -0.1851,0 -1.4644,-0.08 -1.2637,1.0885 z" /><text
       id="text158"
       style="font-variant:normal;font-weight:normal;font-size:14.54300022px;font-family:Century725BT;-inkscape-font-specification:Century725BT-RomanCondensed;writing-mode:lr-tb;fill:#231f20;fill-opacity:1;fill-rule:nonzero;stroke:#231f20;stroke-width:0.5;stroke-linecap:butt;stroke-linejoin:miter;stroke-miterlimit:22.92558479;stroke-dasharray:none;stroke-opacity:1"
       transform="matrix(1,0,0,-1,520.0679,485.5088)"><tspan
         id="tspan156"
         y="0"
         x="0 6.3262048">19</tspan></text>
<text
       id="text162"
       style="font-variant:normal;font-weight:normal;font-size:14.54300022px;font-family:Century725BT;-inkscape-font-specification:Century725BT-RomanCondensed;writing-mode:lr-tb;fill:#231f20;fill-opacity:1;fill-rule:nonzero;stroke:#231f20;stroke-width:0.5;stroke-linecap:butt;stroke-linejoin:miter;stroke-miterlimit:22.92558479;stroke-dasharray:none;stroke-opacity:1"
       transform="matrix(1,0,0,-1,483.7246,224.4243)"><tspan
         id="tspan160"
         y="0"
         x="0 6.3262048">01</tspan></text>
<text
       id="text166"
       style="font-variant:normal;font-weight:normal;font-size:14.54300022px;font-family:Century725BT;-inkscape-font-specification:Century725BT-RomanCondensed;writing-mode:lr-tb;fill:#231f20;fill-opacity:1;fill-rule:nonzero;stroke:#231f20;stroke-width:0.5;stroke-linecap:butt;stroke-linejoin:miter;stroke-miterlimit:22.92558479;stroke-dasharray:none;stroke-opacity:1"
       transform="matrix(1,0,0,-1,412.2896,223.8962)"><tspan
         id="tspan164"
         y="0"
         x="0 6.3262048">02</tspan></text>
<path
       id="path168"
       style="fill:none;stroke:#231f20;stroke-width:0.5;stroke-linecap:butt;stroke-linejoin:miter;stroke-miterlimit:22.92558479;stroke-dasharray:none;stroke-opacity:1"
       d="m 408.6782,215.3602 -5.9502,-1.0236 c -0.5901,-0.1015 -1.0888,-0.4257 -1.0888,-0.9453 v -4.1899 c 0,-0.5196 0.4989,-0.8439 1.0888,-0.9454 l 5.9502,-1.0236 c 1.1682,-0.2007 1.0885,1.0786 1.0885,1.2637 v 5.6004 c 0,0.1851 0.08,1.4644 -1.0885,1.2637 z m 0,9.3665 -5.9502,-1.0236 c -0.5901,-0.1014 -1.0888,-0.4257 -1.0888,-0.9453 v -4.1899 c 0,-0.5196 0.4989,-0.8439 1.0888,-0.9453 l 5.9502,-1.0234 c 1.1682,-0.2009 1.0885,1.0783 1.0885,1.2634 v 5.6005 c 0,0.1853 0.08,1.4643 -1.0885,1.2636 z m 0,9.3666 -5.9502,-1.0236 c -0.5901,-0.1012 -1.0888,-0.4255 -1.0888,-0.9454 v -4.1896 c 0,-0.5199 0.4989,-0.8441 1.0888,-0.9456 l 5.9502,-1.0233 c 1.1682,-0.2007 1.0885,1.0783 1.0885,1.2636 v 5.6002 c 0,0.1854 0.08,1.4644 -1.0885,1.2637 z m 34.3024,-18.7331 5.9502,-1.0236 c 0.5901,-0.1015 1.0888,-0.4257 1.0888,-0.9453 v -4.1899 c 0,-0.5196 -0.4989,-0.8439 -1.0888,-0.9454 l -5.9502,-1.0236 c -1.1682,-0.2007 -1.0885,1.0786 -1.0885,1.2637 v 5.6004 c 0,0.1851 -0.08,1.4644 1.0885,1.2637 z m 0,9.3665 5.9502,-1.0236 c 0.5901,-0.1014 1.0888,-0.4257 1.0888,-0.9453 v -4.1899 c 0,-0.5196 -0.4989,-0.8439 -1.0888,-0.9453 l -5.9502,-1.0234 c -1.1682,-0.2009 -1.0885,1.0783 -1.0885,1.2634 v 5.6005 c 0,0.1853 -0.08,1.4643 1.0885,1.2636 z m 0,9.3666 5.9502,-1.0236 c 0.5901,-0.1012 1.0888,-0.4255 1.0888,-0.9454 v -4.1896 c 0,-0.5199 -0.4989,-0.8441 -1.0888,-0.9456 l -5.9502,-1.0233 c -1.1682,-0.2007 -1.0885,1.0783 -1.0885,1.2636 v 5.6002 c 0,0.1854 -0.08,1.4644 1.0885,1.2637 z m -19.5443,-30.7599 -1.0234,-5.9502 c -0.1014,-0.5902 -0.4257,-1.0888 -0.9453,-1.0888 h -4.1899 c -0.5196,0 -0.8439,0.4989 -0.9454,1.0888 l -1.0235,5.9502 c -0.2007,1.1681 1.0783,1.0885 1.2636,1.0885 h 5.6005 c 0.1851,0 1.4643,0.0799 1.2634,-1.0885 z m 11.6773,0 -1.0236,-5.9502 c -0.1015,-0.5902 -0.4258,-1.0888 -0.9454,-1.0888 h -4.1899 c -0.5196,0 -0.8438,0.4989 -0.9453,1.0888 l -1.0236,5.9502 c -0.2007,1.1681 1.0786,1.0885 1.2637,1.0885 h 5.6004 c 0.1851,0 1.4644,0.0799 1.2637,-1.0885 z m 5.955,32.5686 v -30.4783 h -30.4784 v 30.4783 z m -14.0828,1.857 1.0233,5.9502 c 0.1015,0.5902 0.4258,1.0888 0.9454,1.0888 h 4.1898 c 0.5196,0 0.8439,-0.4989 0.9454,-1.0888 l 1.0236,-5.9502 c 0.2007,-1.1681 -1.0783,-1.0885 -1.2637,-1.0885 h -5.6004 c -0.1851,0 -1.4644,-0.0799 -1.2634,1.0885 z m -11.6773,0 1.0236,5.9502 c 0.1014,0.5902 0.4257,1.0888 0.9453,1.0888 h 4.1899 c 0.5196,0 0.8439,-0.4989 0.9454,-1.0888 l 1.0236,-5.9502 c 0.2006,-1.1681 -1.0786,-1.0885 -1.2637,-1.0885 h -5.6004 c -0.1851,0 -1.4644,-0.0799 -1.2637,1.0885 z" /><path
       id="path170"
       style="fill:none;stroke:#231f20;stroke-width:0.5;stroke-linecap:butt;stroke-linejoin:miter;stroke-miterlimit:22.92558479;stroke-dasharray:none;stroke-opacity:1"
       d="m 478.859,215.3602 -5.9502,-1.0236 c -0.5902,-0.1015 -1.0888,-0.4257 -1.0888,-0.9453 v -4.1899 c 0,-0.5196 0.4989,-0.8439 1.0888,-0.9454 l 5.9502,-1.0236 c 1.1681,-0.2007 1.0885,1.0786 1.0885,1.2637 v 5.6004 c 0,0.1851 0.0799,1.4644 -1.0885,1.2637 z m 0,9.3665 -5.9502,-1.0236 c -0.5902,-0.1014 -1.0888,-0.4257 -1.0888,-0.9453 v -4.1899 c 0,-0.5196 0.4989,-0.8439 1.0888,-0.9453 l 5.9502,-1.0234 c 1.1681,-0.2009 1.0885,1.0783 1.0885,1.2634 v 5.6005 c 0,0.1853 0.0799,1.4643 -1.0885,1.2636 z m 0,9.3666 -5.9502,-1.0236 c -0.5902,-0.1012 -1.0888,-0.4255 -1.0888,-0.9454 v -4.1896 c 0,-0.5199 0.4989,-0.8441 1.0888,-0.9456 l 5.9502,-1.0233 c 1.1681,-0.2007 1.0885,1.0783 1.0885,1.2636 v 5.6002 c 0,0.1854 0.0799,1.4644 -1.0885,1.2637 z m 34.3023,-18.7331 5.9502,-1.0236 c 0.5902,-0.1015 1.0888,-0.4257 1.0888,-0.9453 v -4.1899 c 0,-0.5196 -0.4989,-0.8439 -1.0888,-0.9454 l -5.9502,-1.0236 c -1.1682,-0.2007 -1.0885,1.0786 -1.0885,1.2637 v 5.6004 c 0,0.1851 -0.0799,1.4644 1.0885,1.2637 z m 0,9.3665 5.9502,-1.0236 c 0.5902,-0.1014 1.0888,-0.4257 1.0888,-0.9453 v -4.1899 c 0,-0.5196 -0.4989,-0.8439 -1.0888,-0.9453 l -5.9502,-1.0234 c -1.1682,-0.2009 -1.0885,1.0783 -1.0885,1.2634 v 5.6005 c 0,0.1853 -0.0799,1.4643 1.0885,1.2636 z m 0,9.3666 5.9502,-1.0236 c 0.5902,-0.1012 1.0888,-0.4255 1.0888,-0.9454 v -4.1896 c 0,-0.5199 -0.4989,-0.8441 -1.0888,-0.9456 l -5.9502,-1.0233 c -1.1682,-0.2007 -1.0885,1.0783 -1.0885,1.2636 v 5.6002 c 0,0.1854 -0.0799,1.4644 1.0885,1.2637 z m -19.5443,-30.7599 -1.0233,-5.9502 c -0.1015,-0.5902 -0.4258,-1.0888 -0.9454,-1.0888 h -4.1899 c -0.5196,0 -0.8438,0.4989 -0.9453,1.0888 l -1.0236,5.9502 c -0.2007,1.1681 1.0783,1.0885 1.2637,1.0885 h 5.6004 c 0.1851,0 1.4644,0.0799 1.2634,-1.0885 z m 11.6773,0 -1.0236,-5.9502 c -0.1015,-0.5902 -0.4258,-1.0888 -0.9453,-1.0888 h -4.1899 c -0.5196,0 -0.8439,0.4989 -0.9454,1.0888 l -1.0236,5.9502 c -0.2007,1.1681 1.0786,1.0885 1.2637,1.0885 h 5.6004 c 0.1851,0 1.4644,0.0799 1.2637,-1.0885 z m 5.955,32.5686 v -30.4783 h -30.4784 v 30.4783 z m -14.0828,1.857 1.0233,5.9502 c 0.1015,0.5902 0.4258,1.0888 0.9454,1.0888 h 4.1899 c 0.5196,0 0.8438,-0.4989 0.9453,-1.0888 l 1.0236,-5.9502 c 0.2007,-1.1681 -1.0783,-1.0885 -1.2637,-1.0885 h -5.6004 c -0.1851,0 -1.4644,-0.0799 -1.2634,1.0885 z m -11.6773,0 1.0236,5.9502 c 0.1015,0.5902 0.4258,1.0888 0.9453,1.0888 h 4.1899 c 0.5196,0 0.8439,-0.4989 0.9454,-1.0888 l 1.0236,-5.9502 c 0.2007,-1.1681 -1.0786,-1.0885 -1.2637,-1.0885 h -5.6004 c -0.1851,0 -1.4644,-0.0799 -1.2637,1.0885 z" /><text
       id="text174"
       style="font-variant:normal;font-weight:normal;font-size:14.54300022px;font-family:Century725BT;-inkscape-font-specification:Century725BT-RomanCondensed;writing-mode:lr-tb;fill:#231f20;fill-opacity:1;fill-rule:nonzero;stroke:#231f20;stroke-width:0.5;stroke-linecap:butt;stroke-linejoin:miter;stroke-miterlimit:22.92558479;stroke-dasharray:none;stroke-opacity:1"
       transform="matrix(1,0,0,-1,215.9872,223.8596)"><tspan
         id="tspan172"
         y="0"
         x="0 6.3262048">04</tspan></text>
<text
       id="text178"
       style="font-variant:normal;font-weight:normal;font-size:14.54300022px;font-family:Century725BT;-inkscape-font-specification:Century725BT-RomanCondensed;writing-mode:lr-tb;fill:#231f20;fill-opacity:1;fill-rule:nonzero;stroke:#231f20;stroke-width:0.5;stroke-linecap:butt;stroke-linejoin:miter;stroke-miterlimit:22.92558479;stroke-dasharray:none;stroke-opacity:1"
       transform="matrix(1,0,0,-1,552.5249,290.4248)"><tspan
         id="tspan176"
         y="0"
         x="0 6.3262048">05</tspan></text>
<text
       id="text182"
       style="font-variant:normal;font-weight:normal;font-size:14.54300022px;font-family:Century725BT;-inkscape-font-specification:Century725BT-RomanCondensed;writing-mode:lr-tb;fill:#231f20;fill-opacity:1;fill-rule:nonzero;stroke:#231f20;stroke-width:0.5;stroke-linecap:butt;stroke-linejoin:miter;stroke-miterlimit:22.92558479;stroke-dasharray:none;stroke-opacity:1"
       transform="matrix(1,0,0,-1,481.0229,290.0409)"><tspan
         id="tspan180"
         y="0"
         x="0 6.3262048">06</tspan></text>
<path
       id="path184"
       style="fill:none;stroke:#231f20;stroke-width:0.5;stroke-linecap:butt;stroke-linejoin:miter;stroke-miterlimit:22.92558479;stroke-dasharray:none;stroke-opacity:1"
       d="m 213.2589,215.3602 -5.9502,-1.0236 c -0.5902,-0.1015 -1.0888,-0.4257 -1.0888,-0.9453 v -4.1899 c 0,-0.5196 0.4989,-0.8439 1.0888,-0.9454 l 5.9502,-1.0236 c 1.1682,-0.2007 1.0885,1.0786 1.0885,1.2637 v 5.6004 c 0,0.1851 0.0799,1.4644 -1.0885,1.2637 z m 0,9.3665 -5.9502,-1.0236 c -0.5902,-0.1014 -1.0888,-0.4257 -1.0888,-0.9453 v -4.1899 c 0,-0.5196 0.4989,-0.8439 1.0888,-0.9453 l 5.9502,-1.0234 c 1.1682,-0.2009 1.0885,1.0783 1.0885,1.2634 v 5.6005 c 0,0.1853 0.0799,1.4643 -1.0885,1.2636 z m 0,9.3666 -5.9502,-1.0236 c -0.5902,-0.1012 -1.0888,-0.4255 -1.0888,-0.9454 v -4.1896 c 0,-0.5199 0.4989,-0.8441 1.0888,-0.9456 l 5.9502,-1.0233 c 1.1682,-0.2007 1.0885,1.0783 1.0885,1.2636 v 5.6002 c 0,0.1854 0.0799,1.4644 -1.0885,1.2637 z m 34.3023,-18.7331 5.9502,-1.0236 c 0.5902,-0.1015 1.0888,-0.4257 1.0888,-0.9453 v -4.1899 c 0,-0.5196 -0.4989,-0.8439 -1.0888,-0.9454 l -5.9502,-1.0236 c -1.1681,-0.2007 -1.0885,1.0786 -1.0885,1.2637 v 5.6004 c 0,0.1851 -0.0799,1.4644 1.0885,1.2637 z m 0,9.3665 5.9502,-1.0236 c 0.5902,-0.1014 1.0888,-0.4257 1.0888,-0.9453 v -4.1899 c 0,-0.5196 -0.4989,-0.8439 -1.0888,-0.9453 l -5.9502,-1.0234 c -1.1681,-0.2009 -1.0885,1.0783 -1.0885,1.2634 v 5.6005 c 0,0.1853 -0.0799,1.4643 1.0885,1.2636 z m 0,9.3666 5.9502,-1.0236 c 0.5902,-0.1012 1.0888,-0.4255 1.0888,-0.9454 v -4.1896 c 0,-0.5199 -0.4989,-0.8441 -1.0888,-0.9456 l -5.9502,-1.0233 c -1.1681,-0.2007 -1.0885,1.0783 -1.0885,1.2636 v 5.6002 c 0,0.1854 -0.0799,1.4644 1.0885,1.2637 z m -19.5443,-30.7599 -1.0233,-5.9502 c -0.1015,-0.5902 -0.4258,-1.0888 -0.9453,-1.0888 h -4.1899 c -0.5196,0 -0.8439,0.4989 -0.9454,1.0888 l -1.0236,5.9502 c -0.2007,1.1681 1.0783,1.0885 1.2637,1.0885 h 5.6004 c 0.1851,0 1.4644,0.0799 1.2634,-1.0885 z m 11.6773,0 -1.0236,-5.9502 c -0.1014,-0.5902 -0.4257,-1.0888 -0.9453,-1.0888 h -4.1899 c -0.5196,0 -0.8439,0.4989 -0.9454,1.0888 l -1.0235,5.9502 c -0.2007,1.1681 1.0785,1.0885 1.2636,1.0885 h 5.6005 c 0.1851,0 1.4643,0.0799 1.2636,-1.0885 z m 5.9551,32.5686 v -30.4783 h -30.4784 v 30.4783 z m -14.0828,1.857 1.0233,5.9502 c 0.1014,0.5902 0.4257,1.0888 0.9453,1.0888 h 4.1899 c 0.5196,0 0.8439,-0.4989 0.9454,-1.0888 l 1.0236,-5.9502 c 0.2006,-1.1681 -1.0783,-1.0885 -1.2637,-1.0885 h -5.6004 c -0.1851,0 -1.4644,-0.0799 -1.2634,1.0885 z m -11.6774,0 1.0236,5.9502 c 0.1015,0.5902 0.4258,1.0888 0.9454,1.0888 h 4.1899 c 0.5196,0 0.8438,-0.4989 0.9453,-1.0888 l 1.0236,-5.9502 c 0.2007,-1.1681 -1.0786,-1.0885 -1.2637,-1.0885 h -5.6004 c -0.1851,0 -1.4644,-0.0799 -1.2637,1.0885 z" /><path
       id="path186"
       style="fill:none;stroke:#231f20;stroke-width:0.5;stroke-linecap:butt;stroke-linejoin:miter;stroke-miterlimit:22.92558479;stroke-dasharray:none;stroke-opacity:1"
       d="m 283.009,215.3602 -5.9502,-1.0236 c -0.5901,-0.1015 -1.0888,-0.4257 -1.0888,-0.9453 v -4.1899 c 0,-0.5196 0.4989,-0.8439 1.0888,-0.9454 l 5.9502,-1.0236 c 1.1682,-0.2007 1.0885,1.0786 1.0885,1.2637 v 5.6004 c 0,0.1851 0.08,1.4644 -1.0885,1.2637 z m 0,9.3665 -5.9502,-1.0236 c -0.5901,-0.1014 -1.0888,-0.4257 -1.0888,-0.9453 v -4.1899 c 0,-0.5196 0.4989,-0.8439 1.0888,-0.9453 l 5.9502,-1.0234 c 1.1682,-0.2009 1.0885,1.0783 1.0885,1.2634 v 5.6005 c 0,0.1853 0.08,1.4643 -1.0885,1.2636 z m 0,9.3666 -5.9502,-1.0236 c -0.5901,-0.1012 -1.0888,-0.4255 -1.0888,-0.9454 v -4.1896 c 0,-0.5199 0.4989,-0.8441 1.0888,-0.9456 l 5.9502,-1.0233 c 1.1682,-0.2007 1.0885,1.0783 1.0885,1.2636 v 5.6002 c 0,0.1854 0.08,1.4644 -1.0885,1.2637 z m 34.3024,-18.7331 5.9502,-1.0236 c 0.5901,-0.1015 1.0888,-0.4257 1.0888,-0.9453 v -4.1899 c 0,-0.5196 -0.4989,-0.8439 -1.0888,-0.9454 l -5.9502,-1.0236 c -1.1682,-0.2007 -1.0885,1.0786 -1.0885,1.2637 v 5.6004 c 0,0.1851 -0.08,1.4644 1.0885,1.2637 z m 0,9.3665 5.9502,-1.0236 c 0.5901,-0.1014 1.0888,-0.4257 1.0888,-0.9453 v -4.1899 c 0,-0.5196 -0.4989,-0.8439 -1.0888,-0.9453 l -5.9502,-1.0234 c -1.1682,-0.2009 -1.0885,1.0783 -1.0885,1.2634 v 5.6005 c 0,0.1853 -0.08,1.4643 1.0885,1.2636 z m 0,9.3666 5.9502,-1.0236 c 0.5901,-0.1012 1.0888,-0.4255 1.0888,-0.9454 v -4.1896 c 0,-0.5199 -0.4989,-0.8441 -1.0888,-0.9456 l -5.9502,-1.0233 c -1.1682,-0.2007 -1.0885,1.0783 -1.0885,1.2636 v 5.6002 c 0,0.1854 -0.08,1.4644 1.0885,1.2637 z m -19.5443,-30.7599 -1.0234,-5.9502 c -0.1014,-0.5902 -0.4257,-1.0888 -0.9453,-1.0888 h -4.1899 c -0.5196,0 -0.8439,0.4989 -0.9454,1.0888 l -1.0235,5.9502 c -0.2007,1.1681 1.0783,1.0885 1.2636,1.0885 h 5.6005 c 0.1851,0 1.4643,0.0799 1.2634,-1.0885 z m 11.6773,0 -1.0236,-5.9502 c -0.1015,-0.5902 -0.4258,-1.0888 -0.9454,-1.0888 h -4.1899 c -0.5195,0 -0.8438,0.4989 -0.9453,1.0888 l -1.0236,5.9502 c -0.2007,1.1681 1.0786,1.0885 1.2637,1.0885 h 5.6004 c 0.1851,0 1.4644,0.0799 1.2637,-1.0885 z m 5.955,32.5686 V 205.4237 H 284.921 v 30.4783 z m -14.0828,1.857 1.0233,5.9502 c 0.1015,0.5902 0.4258,1.0888 0.9454,1.0888 h 4.1898 c 0.5196,0 0.8439,-0.4989 0.9454,-1.0888 l 1.0236,-5.9502 c 0.2007,-1.1681 -1.0783,-1.0885 -1.2637,-1.0885 H 302.58 c -0.1851,0 -1.4644,-0.0799 -1.2634,1.0885 z m -11.6773,0 1.0236,5.9502 c 0.1014,0.5902 0.4257,1.0888 0.9453,1.0888 h 4.1899 c 0.5196,0 0.8439,-0.4989 0.9454,-1.0888 l 1.0236,-5.9502 c 0.2006,-1.1681 -1.0786,-1.0885 -1.2637,-1.0885 h -5.6004 c -0.1851,0 -1.4644,-0.0799 -1.2637,1.0885 z" /><text
       id="text190"
       style="font-variant:normal;font-weight:normal;font-size:14.54300022px;font-family:Century725BT;-inkscape-font-specification:Century725BT-RomanCondensed;writing-mode:lr-tb;fill:#231f20;fill-opacity:1;fill-rule:nonzero;stroke:#231f20;stroke-width:0.5;stroke-linecap:butt;stroke-linejoin:miter;stroke-miterlimit:22.92558479;stroke-dasharray:none;stroke-opacity:1"
       transform="matrix(1,0,0,-1,485.0796,425.5421)"><tspan
         id="tspan188"
         y="0"
         x="0 6.3262048">16</tspan></text>
<text
       id="text194"
       style="font-variant:normal;font-weight:normal;font-size:14.54300022px;font-family:Century725BT;-inkscape-font-specification:Century725BT-RomanCondensed;writing-mode:lr-tb;fill:#231f20;fill-opacity:1;fill-rule:nonzero;stroke:#231f20;stroke-width:0.5;stroke-linecap:butt;stroke-linejoin:miter;stroke-miterlimit:22.92558479;stroke-dasharray:none;stroke-opacity:1"
       transform="matrix(1,0,0,-1,212.8507,425.0421)"><tspan
         id="tspan192"
         y="0"
         x="0 6.3262048">17</tspan></text>
<path
       id="path196"
       style="fill:none;stroke:#231f20;stroke-width:0.5;stroke-linecap:butt;stroke-linejoin:miter;stroke-miterlimit:22.92558479;stroke-dasharray:none;stroke-opacity:1"
       d="m 480.4997,416.9452 -5.9503,-1.0236 c -0.5901,-0.1015 -1.0887,-0.4258 -1.0887,-0.9453 v -4.1899 c 0,-0.5196 0.4989,-0.8439 1.0887,-0.9454 l 5.9503,-1.0236 c 1.1681,-0.2007 1.0885,1.0786 1.0885,1.2637 v 5.6004 c 0,0.1851 0.0799,1.4644 -1.0885,1.2637 z m 0,9.3665 -5.9503,-1.0236 c -0.5901,-0.1015 -1.0887,-0.4257 -1.0887,-0.9453 v -4.1899 c 0,-0.5196 0.4989,-0.8439 1.0887,-0.9454 l 5.9503,-1.0233 c 1.1681,-0.201 1.0885,1.0783 1.0885,1.2634 v 5.6004 c 0,0.1854 0.0799,1.4644 -1.0885,1.2637 z m 0,9.3665 -5.9503,-1.0236 c -0.5901,-0.1012 -1.0887,-0.4254 -1.0887,-0.9453 v -4.1896 c 0,-0.5199 0.4989,-0.8442 1.0887,-0.9457 l 5.9503,-1.0233 c 1.1681,-0.2007 1.0885,1.0783 1.0885,1.2637 v 5.6002 c 0,0.1853 0.0799,1.4643 -1.0885,1.2636 z m 34.3023,-18.733 5.9502,-1.0236 c 0.5902,-0.1015 1.0888,-0.4258 1.0888,-0.9453 v -4.1899 c 0,-0.5196 -0.4989,-0.8439 -1.0888,-0.9454 l -5.9502,-1.0236 c -1.1682,-0.2007 -1.0885,1.0786 -1.0885,1.2637 v 5.6004 c 0,0.1851 -0.08,1.4644 1.0885,1.2637 z m 0,9.3665 5.9502,-1.0236 c 0.5902,-0.1015 1.0888,-0.4257 1.0888,-0.9453 v -4.1899 c 0,-0.5196 -0.4989,-0.8439 -1.0888,-0.9454 l -5.9502,-1.0233 c -1.1682,-0.201 -1.0885,1.0783 -1.0885,1.2634 v 5.6004 c 0,0.1854 -0.08,1.4644 1.0885,1.2637 z m 0,9.3665 5.9502,-1.0236 c 0.5902,-0.1012 1.0888,-0.4254 1.0888,-0.9453 v -4.1896 c 0,-0.5199 -0.4989,-0.8442 -1.0888,-0.9457 l -5.9502,-1.0233 c -1.1682,-0.2007 -1.0885,1.0783 -1.0885,1.2637 v 5.6002 c 0,0.1853 -0.08,1.4643 1.0885,1.2636 z m -19.5443,-30.7598 -1.0233,-5.9502 c -0.1015,-0.5902 -0.4258,-1.0888 -0.9454,-1.0888 h -4.1899 c -0.5196,0 -0.8439,0.4989 -0.9453,1.0888 l -1.0236,5.9502 c -0.2007,1.1681 1.0783,1.0885 1.2637,1.0885 h 5.6004 c 0.1851,0 1.4643,0.0799 1.2634,-1.0885 z m 11.6773,0 -1.0236,-5.9502 c -0.1015,-0.5902 -0.4258,-1.0888 -0.9454,-1.0888 h -4.1898 c -0.5196,0 -0.8439,0.4989 -0.9454,1.0888 l -1.0236,5.9502 c -0.2007,1.1681 1.0786,1.0885 1.2637,1.0885 h 5.6004 c 0.1851,0 1.4644,0.0799 1.2637,-1.0885 z m 5.955,32.5686 v -30.4784 h -30.4784 v 30.4784 z m -14.0828,1.857 1.0233,5.9502 c 0.1015,0.5902 0.4258,1.0888 0.9454,1.0888 h 4.1899 c 0.5196,0 0.8438,-0.4989 0.9453,-1.0888 l 1.0236,-5.9502 c 0.2007,-1.1682 -1.0783,-1.0885 -1.2637,-1.0885 h -5.6004 c -0.1851,0 -1.4644,-0.0799 -1.2634,1.0885 z m -11.6773,0 1.0236,5.9502 c 0.1015,0.5902 0.4257,1.0888 0.9453,1.0888 h 4.1899 c 0.5196,0 0.8439,-0.4989 0.9454,-1.0888 l 1.0236,-5.9502 c 0.2007,-1.1682 -1.0786,-1.0885 -1.2637,-1.0885 h -5.6004 c -0.1851,0 -1.4644,-0.0799 -1.2637,1.0885 z" /><path
       id="path198"
       style="fill:#ffffff;fill-opacity:1;fill-rule:evenodd;stroke:#231f20;stroke-width:0.5;stroke-linecap:butt;stroke-linejoin:miter;stroke-miterlimit:22.92558479;stroke-dasharray:none;stroke-opacity:1"
       d="m 550.7354,416.9452 -5.9502,-1.0236 c -0.5902,-0.1015 -1.0888,-0.4258 -1.0888,-0.9453 v -4.1899 c 0,-0.5196 0.4989,-0.8439 1.0888,-0.9454 l 5.9502,-1.0236 c 1.1681,-0.2007 1.0885,1.0786 1.0885,1.2637 v 5.6004 c 0,0.1851 0.0799,1.4644 -1.0885,1.2637 z m 0,9.3665 -5.9502,-1.0236 c -0.5902,-0.1015 -1.0888,-0.4257 -1.0888,-0.9453 v -4.1899 c 0,-0.5196 0.4989,-0.8439 1.0888,-0.9454 l 5.9502,-1.0233 c 1.1681,-0.201 1.0885,1.0783 1.0885,1.2634 v 5.6004 c 0,0.1854 0.0799,1.4644 -1.0885,1.2637 z m 0,9.3665 -5.9502,-1.0236 c -0.5902,-0.1012 -1.0888,-0.4254 -1.0888,-0.9453 v -4.1896 c 0,-0.5199 0.4989,-0.8442 1.0888,-0.9457 l 5.9502,-1.0233 c 1.1681,-0.2007 1.0885,1.0783 1.0885,1.2637 v 5.6002 c 0,0.1853 0.0799,1.4643 -1.0885,1.2636 z m 34.3023,-18.733 5.9502,-1.0236 c 0.5902,-0.1015 1.0888,-0.4258 1.0888,-0.9453 v -4.1899 c 0,-0.5196 -0.4989,-0.8439 -1.0888,-0.9454 l -5.9502,-1.0236 c -1.1682,-0.2007 -1.0885,1.0786 -1.0885,1.2637 v 5.6004 c 0,0.1851 -0.0799,1.4644 1.0885,1.2637 z m 0,9.3665 5.9502,-1.0236 c 0.5902,-0.1015 1.0888,-0.4257 1.0888,-0.9453 v -4.1899 c 0,-0.5196 -0.4989,-0.8439 -1.0888,-0.9454 l -5.9502,-1.0233 c -1.1682,-0.201 -1.0885,1.0783 -1.0885,1.2634 v 5.6004 c 0,0.1854 -0.0799,1.4644 1.0885,1.2637 z m 0,9.3665 5.9502,-1.0236 c 0.5902,-0.1012 1.0888,-0.4254 1.0888,-0.9453 v -4.1896 c 0,-0.5199 -0.4989,-0.8442 -1.0888,-0.9457 l -5.9502,-1.0233 c -1.1682,-0.2007 -1.0885,1.0783 -1.0885,1.2637 v 5.6002 c 0,0.1853 -0.0799,1.4643 1.0885,1.2636 z m -19.5443,-30.7598 -1.0233,-5.9502 c -0.1015,-0.5902 -0.4258,-1.0888 -0.9454,-1.0888 h -4.1899 c -0.5196,0 -0.8438,0.4989 -0.9453,1.0888 l -1.0236,5.9502 c -0.2007,1.1681 1.0783,1.0885 1.2637,1.0885 h 5.6004 c 0.1851,0 1.4644,0.0799 1.2634,-1.0885 z m 11.6773,0 -1.0236,-5.9502 c -0.1015,-0.5902 -0.4257,-1.0888 -0.9453,-1.0888 h -4.1899 c -0.5196,0 -0.8439,0.4989 -0.9454,1.0888 l -1.0236,5.9502 c -0.2007,1.1681 1.0786,1.0885 1.2637,1.0885 h 5.6004 c 0.1851,0 1.4644,0.0799 1.2637,-1.0885 z m 5.955,32.5686 v -30.4784 h -30.4784 v 30.4784 z m -14.0828,1.857 1.0233,5.9502 c 0.1015,0.5902 0.4258,1.0888 0.9454,1.0888 h 4.1899 c 0.5196,0 0.8439,-0.4989 0.9453,-1.0888 l 1.0236,-5.9502 c 0.2007,-1.1682 -1.0783,-1.0885 -1.2637,-1.0885 h -5.6004 c -0.1851,0 -1.4643,-0.0799 -1.2634,1.0885 z m -11.6773,0 1.0236,5.9502 c 0.1015,0.5902 0.4258,1.0888 0.9454,1.0888 h 4.1898 c 0.5196,0 0.8439,-0.4989 0.9454,-1.0888 l 1.0236,-5.9502 c 0.2007,-1.1682 -1.0786,-1.0885 -1.2637,-1.0885 h -5.6004 c -0.1851,0 -1.4644,-0.0799 -1.2637,1.0885 z" /><path
       id="path200"
       style="fill:none;stroke:#231f20;stroke-width:0.5;stroke-linecap:butt;stroke-linejoin:miter;stroke-miterlimit:22.92558479;stroke-dasharray:none;stroke-opacity:1"
       d="m 480.4997,352.4216 -5.9503,-1.0236 c -0.5901,-0.1015 -1.0887,-0.4258 -1.0887,-0.9454 v -4.1899 c 0,-0.5196 0.4989,-0.8438 1.0887,-0.9453 l 5.9503,-1.0236 c 1.1681,-0.2007 1.0885,1.0786 1.0885,1.2637 v 5.6004 c 0,0.1851 0.0799,1.4644 -1.0885,1.2637 z m 0,9.3665 -5.9503,-1.0236 c -0.5901,-0.1015 -1.0887,-0.4258 -1.0887,-0.9454 v -4.1898 c 0,-0.5196 0.4989,-0.8439 1.0887,-0.9454 l 5.9503,-1.0233 c 1.1681,-0.201 1.0885,1.0783 1.0885,1.2634 v 5.6004 c 0,0.1854 0.0799,1.4644 -1.0885,1.2637 z m 0,9.3665 -5.9503,-1.0236 c -0.5901,-0.1012 -1.0887,-0.4255 -1.0887,-0.9453 v -4.1896 c 0,-0.5199 0.4989,-0.8442 1.0887,-0.9457 l 5.9503,-1.0233 c 1.1681,-0.2007 1.0885,1.0783 1.0885,1.2637 v 5.6001 c 0,0.1854 0.0799,1.4644 -1.0885,1.2637 z m 34.3023,-18.733 5.9502,-1.0236 c 0.5902,-0.1015 1.0888,-0.4258 1.0888,-0.9454 v -4.1899 c 0,-0.5196 -0.4989,-0.8438 -1.0888,-0.9453 l -5.9502,-1.0236 c -1.1682,-0.2007 -1.0885,1.0786 -1.0885,1.2637 v 5.6004 c 0,0.1851 -0.08,1.4644 1.0885,1.2637 z m 0,9.3665 5.9502,-1.0236 c 0.5902,-0.1015 1.0888,-0.4258 1.0888,-0.9454 v -4.1898 c 0,-0.5196 -0.4989,-0.8439 -1.0888,-0.9454 l -5.9502,-1.0233 c -1.1682,-0.201 -1.0885,1.0783 -1.0885,1.2634 v 5.6004 c 0,0.1854 -0.08,1.4644 1.0885,1.2637 z m 0,9.3665 5.9502,-1.0236 c 0.5902,-0.1012 1.0888,-0.4255 1.0888,-0.9453 v -4.1896 c 0,-0.5199 -0.4989,-0.8442 -1.0888,-0.9457 l -5.9502,-1.0233 c -1.1682,-0.2007 -1.0885,1.0783 -1.0885,1.2637 v 5.6001 c 0,0.1854 -0.08,1.4644 1.0885,1.2637 z m -19.5443,-30.7599 -1.0233,-5.9502 c -0.1015,-0.5901 -0.4258,-1.0888 -0.9454,-1.0888 h -4.1899 c -0.5196,0 -0.8439,0.4989 -0.9453,1.0888 l -1.0236,5.9502 c -0.2007,1.1682 1.0783,1.0885 1.2637,1.0885 h 5.6004 c 0.1851,0 1.4643,0.08 1.2634,-1.0885 z m 11.6773,0 -1.0236,-5.9502 c -0.1015,-0.5901 -0.4258,-1.0888 -0.9454,-1.0888 h -4.1898 c -0.5196,0 -0.8439,0.4989 -0.9454,1.0888 l -1.0236,5.9502 c -0.2007,1.1682 1.0786,1.0885 1.2637,1.0885 h 5.6004 c 0.1851,0 1.4644,0.08 1.2637,-1.0885 z m 5.955,32.5687 V 342.485 h -30.4784 v 30.4784 z m -14.0828,1.857 1.0233,5.9502 c 0.1015,0.5902 0.4258,1.0888 0.9454,1.0888 h 4.1899 c 0.5196,0 0.8438,-0.4989 0.9453,-1.0888 l 1.0236,-5.9502 c 0.2007,-1.1682 -1.0783,-1.0885 -1.2637,-1.0885 h -5.6004 c -0.1851,0 -1.4644,-0.08 -1.2634,1.0885 z m -11.6773,0 1.0236,5.9502 c 0.1015,0.5902 0.4257,1.0888 0.9453,1.0888 h 4.1899 c 0.5196,0 0.8439,-0.4989 0.9454,-1.0888 l 1.0236,-5.9502 c 0.2007,-1.1682 -1.0786,-1.0885 -1.2637,-1.0885 h -5.6004 c -0.1851,0 -1.4644,-0.08 -1.2637,1.0885 z" /><path
       id="path202"
       style="fill:none;stroke:#231f20;stroke-width:0.5;stroke-linecap:butt;stroke-linejoin:miter;stroke-miterlimit:22.92558479;stroke-dasharray:none;stroke-opacity:1"
       d="m 550.7354,352.4216 -5.9502,-1.0236 c -0.5902,-0.1015 -1.0888,-0.4258 -1.0888,-0.9454 v -4.1899 c 0,-0.5196 0.4989,-0.8438 1.0888,-0.9453 l 5.9502,-1.0236 c 1.1681,-0.2007 1.0885,1.0786 1.0885,1.2637 v 5.6004 c 0,0.1851 0.0799,1.4644 -1.0885,1.2637 z m 0,9.3665 -5.9502,-1.0236 c -0.5902,-0.1015 -1.0888,-0.4258 -1.0888,-0.9454 v -4.1898 c 0,-0.5196 0.4989,-0.8439 1.0888,-0.9454 l 5.9502,-1.0233 c 1.1681,-0.201 1.0885,1.0783 1.0885,1.2634 v 5.6004 c 0,0.1854 0.0799,1.4644 -1.0885,1.2637 z m 0,9.3665 -5.9502,-1.0236 c -0.5902,-0.1012 -1.0888,-0.4255 -1.0888,-0.9453 v -4.1896 c 0,-0.5199 0.4989,-0.8442 1.0888,-0.9457 l 5.9502,-1.0233 c 1.1681,-0.2007 1.0885,1.0783 1.0885,1.2637 v 5.6001 c 0,0.1854 0.0799,1.4644 -1.0885,1.2637 z m 34.3023,-18.733 5.9502,-1.0236 c 0.5902,-0.1015 1.0888,-0.4258 1.0888,-0.9454 v -4.1899 c 0,-0.5196 -0.4989,-0.8438 -1.0888,-0.9453 l -5.9502,-1.0236 c -1.1682,-0.2007 -1.0885,1.0786 -1.0885,1.2637 v 5.6004 c 0,0.1851 -0.0799,1.4644 1.0885,1.2637 z m 0,9.3665 5.9502,-1.0236 c 0.5902,-0.1015 1.0888,-0.4258 1.0888,-0.9454 v -4.1898 c 0,-0.5196 -0.4989,-0.8439 -1.0888,-0.9454 l -5.9502,-1.0233 c -1.1682,-0.201 -1.0885,1.0783 -1.0885,1.2634 v 5.6004 c 0,0.1854 -0.0799,1.4644 1.0885,1.2637 z m 0,9.3665 5.9502,-1.0236 c 0.5902,-0.1012 1.0888,-0.4255 1.0888,-0.9453 v -4.1896 c 0,-0.5199 -0.4989,-0.8442 -1.0888,-0.9457 l -5.9502,-1.0233 c -1.1682,-0.2007 -1.0885,1.0783 -1.0885,1.2637 v 5.6001 c 0,0.1854 -0.0799,1.4644 1.0885,1.2637 z m -19.5443,-30.7599 -1.0233,-5.9502 c -0.1015,-0.5901 -0.4258,-1.0888 -0.9454,-1.0888 h -4.1899 c -0.5196,0 -0.8438,0.4989 -0.9453,1.0888 l -1.0236,5.9502 c -0.2007,1.1682 1.0783,1.0885 1.2637,1.0885 h 5.6004 c 0.1851,0 1.4644,0.08 1.2634,-1.0885 z m 11.6773,0 -1.0236,-5.9502 c -0.1015,-0.5901 -0.4257,-1.0888 -0.9453,-1.0888 h -4.1899 c -0.5196,0 -0.8439,0.4989 -0.9454,1.0888 l -1.0236,5.9502 c -0.2007,1.1682 1.0786,1.0885 1.2637,1.0885 h 5.6004 c 0.1851,0 1.4644,0.08 1.2637,-1.0885 z m 5.955,32.5687 V 342.485 h -30.4784 v 30.4784 z m -14.0828,1.857 1.0233,5.9502 c 0.1015,0.5902 0.4258,1.0888 0.9454,1.0888 h 4.1899 c 0.5196,0 0.8439,-0.4989 0.9453,-1.0888 l 1.0236,-5.9502 c 0.2007,-1.1682 -1.0783,-1.0885 -1.2637,-1.0885 h -5.6004 c -0.1851,0 -1.4643,-0.08 -1.2634,1.0885 z m -11.6773,0 1.0236,5.9502 c 0.1015,0.5902 0.4258,1.0888 0.9454,1.0888 h 4.1898 c 0.5196,0 0.8439,-0.4989 0.9454,-1.0888 l 1.0236,-5.9502 c 0.2007,-1.1682 -1.0786,-1.0885 -1.2637,-1.0885 h -5.6004 c -0.1851,0 -1.4644,-0.08 -1.2637,1.0885 z" /><path
       id="path204"
       style="fill:none;stroke:#231f20;stroke-width:0.5;stroke-linecap:butt;stroke-linejoin:miter;stroke-miterlimit:22.92558479;stroke-dasharray:none;stroke-opacity:1"
       d="m 208.3853,416.9452 -5.9502,-1.0236 c -0.5902,-0.1015 -1.0888,-0.4258 -1.0888,-0.9453 v -4.1899 c 0,-0.5196 0.4989,-0.8439 1.0888,-0.9454 l 5.9502,-1.0236 c 1.1681,-0.2007 1.0885,1.0786 1.0885,1.2637 v 5.6004 c 0,0.1851 0.0799,1.4644 -1.0885,1.2637 z m 0,9.3665 -5.9502,-1.0236 c -0.5902,-0.1015 -1.0888,-0.4257 -1.0888,-0.9453 v -4.1899 c 0,-0.5196 0.4989,-0.8439 1.0888,-0.9454 l 5.9502,-1.0233 c 1.1681,-0.201 1.0885,1.0783 1.0885,1.2634 v 5.6004 c 0,0.1854 0.0799,1.4644 -1.0885,1.2637 z m 0,9.3665 -5.9502,-1.0236 c -0.5902,-0.1012 -1.0888,-0.4254 -1.0888,-0.9453 v -4.1896 c 0,-0.5199 0.4989,-0.8442 1.0888,-0.9457 l 5.9502,-1.0233 c 1.1681,-0.2007 1.0885,1.0783 1.0885,1.2637 v 5.6002 c 0,0.1853 0.0799,1.4643 -1.0885,1.2636 z m 34.3023,-18.733 5.9502,-1.0236 c 0.5902,-0.1015 1.0888,-0.4258 1.0888,-0.9453 v -4.1899 c 0,-0.5196 -0.4989,-0.8439 -1.0888,-0.9454 l -5.9502,-1.0236 c -1.1681,-0.2007 -1.0885,1.0786 -1.0885,1.2637 v 5.6004 c 0,0.1851 -0.0799,1.4644 1.0885,1.2637 z m 0,9.3665 5.9502,-1.0236 c 0.5902,-0.1015 1.0888,-0.4257 1.0888,-0.9453 v -4.1899 c 0,-0.5196 -0.4989,-0.8439 -1.0888,-0.9454 l -5.9502,-1.0233 c -1.1681,-0.201 -1.0885,1.0783 -1.0885,1.2634 v 5.6004 c 0,0.1854 -0.0799,1.4644 1.0885,1.2637 z m 0,9.3665 5.9502,-1.0236 c 0.5902,-0.1012 1.0888,-0.4254 1.0888,-0.9453 v -4.1896 c 0,-0.5199 -0.4989,-0.8442 -1.0888,-0.9457 l -5.9502,-1.0233 c -1.1681,-0.2007 -1.0885,1.0783 -1.0885,1.2637 v 5.6002 c 0,0.1853 -0.0799,1.4643 1.0885,1.2636 z m -19.5443,-30.7598 -1.0233,-5.9502 c -0.1015,-0.5902 -0.4258,-1.0888 -0.9454,-1.0888 h -4.1898 c -0.5196,0 -0.8439,0.4989 -0.9454,1.0888 l -1.0236,5.9502 c -0.2007,1.1681 1.0783,1.0885 1.2637,1.0885 h 5.6004 c 0.1851,0 1.4644,0.0799 1.2634,-1.0885 z m 11.6773,0 -1.0236,-5.9502 c -0.1014,-0.5902 -0.4257,-1.0888 -0.9453,-1.0888 h -4.1899 c -0.5196,0 -0.8439,0.4989 -0.9454,1.0888 l -1.0235,5.9502 c -0.2007,1.1681 1.0785,1.0885 1.2636,1.0885 h 5.6004 c 0.1851,0 1.4644,0.0799 1.2637,-1.0885 z m 5.9551,32.5686 v -30.4784 h -30.4784 v 30.4784 z m -14.0828,1.857 1.0233,5.9502 c 0.1014,0.5902 0.4257,1.0888 0.9453,1.0888 h 4.1899 c 0.5196,0 0.8439,-0.4989 0.9454,-1.0888 l 1.0235,-5.9502 c 0.2007,-1.1682 -1.0783,-1.0885 -1.2636,-1.0885 h -5.6004 c -0.1852,0 -1.4644,-0.0799 -1.2634,1.0885 z m -11.6774,0 1.0236,5.9502 c 0.1015,0.5902 0.4258,1.0888 0.9454,1.0888 h 4.1899 c 0.5196,0 0.8438,-0.4989 0.9453,-1.0888 l 1.0236,-5.9502 c 0.2007,-1.1682 -1.0786,-1.0885 -1.2637,-1.0885 h -5.6004 c -0.1851,0 -1.4644,-0.0799 -1.2637,1.0885 z" /><path
       id="path206"
       style="fill:none;stroke:#231f20;stroke-width:0.5;stroke-linecap:butt;stroke-linejoin:miter;stroke-miterlimit:22.92558479;stroke-dasharray:none;stroke-opacity:1"
       d="M 138.9002,351.9215 132.95,350.898 c -0.5902,-0.1015 -1.0888,-0.4258 -1.0888,-0.9454 v -4.1899 c 0,-0.5196 0.4989,-0.8439 1.0888,-0.9453 l 5.9502,-1.0236 c 1.1681,-0.2007 1.0885,1.0785 1.0885,1.2636 v 5.6005 c 0,0.1851 0.0799,1.4643 -1.0885,1.2636 z m 0,9.3666 -5.9502,-1.0236 c -0.5902,-0.1015 -1.0888,-0.4258 -1.0888,-0.9454 v -4.1899 c 0,-0.5196 0.4989,-0.8438 1.0888,-0.9453 l 5.9502,-1.0233 c 1.1681,-0.201 1.0885,1.0783 1.0885,1.2634 v 5.6004 c 0,0.1854 0.0799,1.4644 -1.0885,1.2637 z m 0,9.3665 -5.9502,-1.0236 c -0.5902,-0.1012 -1.0888,-0.4255 -1.0888,-0.9454 v -4.1896 c 0,-0.5198 0.4989,-0.8441 1.0888,-0.9456 l 5.9502,-1.0233 c 1.1681,-0.2007 1.0885,1.0783 1.0885,1.2637 v 5.6001 c 0,0.1854 0.0799,1.4644 -1.0885,1.2637 z m 34.3023,-18.7331 5.9502,-1.0235 c 0.5902,-0.1015 1.0888,-0.4258 1.0888,-0.9454 v -4.1899 c 0,-0.5196 -0.4989,-0.8439 -1.0888,-0.9453 l -5.9502,-1.0236 c -1.1681,-0.2007 -1.0885,1.0785 -1.0885,1.2636 v 5.6005 c 0,0.1851 -0.0799,1.4643 1.0885,1.2636 z m 0,9.3666 5.9502,-1.0236 c 0.5902,-0.1015 1.0888,-0.4258 1.0888,-0.9454 v -4.1899 c 0,-0.5196 -0.4989,-0.8438 -1.0888,-0.9453 l -5.9502,-1.0233 c -1.1681,-0.201 -1.0885,1.0783 -1.0885,1.2634 v 5.6004 c 0,0.1854 -0.0799,1.4644 1.0885,1.2637 z m 0,9.3665 5.9502,-1.0236 c 0.5902,-0.1012 1.0888,-0.4255 1.0888,-0.9454 v -4.1896 c 0,-0.5198 -0.4989,-0.8441 -1.0888,-0.9456 l -5.9502,-1.0233 c -1.1681,-0.2007 -1.0885,1.0783 -1.0885,1.2637 v 5.6001 c 0,0.1854 -0.0799,1.4644 1.0885,1.2637 z m -19.5443,-30.7599 -1.0233,-5.9502 c -0.1015,-0.5902 -0.4258,-1.0888 -0.9454,-1.0888 h -4.1898 c -0.5196,0 -0.8439,0.4989 -0.9454,1.0888 l -1.0236,5.9502 c -0.2007,1.1682 1.0783,1.0885 1.2637,1.0885 h 5.6004 c 0.1851,0 1.4644,0.0799 1.2634,-1.0885 z m 11.6773,0 -1.0236,-5.9502 c -0.1014,-0.5902 -0.4257,-1.0888 -0.9453,-1.0888 h -4.1899 c -0.5196,0 -0.8439,0.4989 -0.9454,1.0888 l -1.0236,5.9502 c -0.2006,1.1682 1.0786,1.0885 1.2637,1.0885 h 5.6004 c 0.1851,0 1.4644,0.0799 1.2637,-1.0885 z m 5.9551,32.5687 V 341.985 h -30.4784 v 30.4784 z m -14.0829,1.8569 1.0234,5.9503 c 0.1014,0.5901 0.4257,1.0887 0.9453,1.0887 h 4.1899 c 0.5196,0 0.8439,-0.4989 0.9454,-1.0887 l 1.0235,-5.9503 c 0.2007,-1.1681 -1.0783,-1.0885 -1.2636,-1.0885 h -5.6005 c -0.1851,0 -1.4643,-0.0799 -1.2634,1.0885 z m -11.6773,0 1.0236,5.9503 c 0.1015,0.5901 0.4258,1.0887 0.9454,1.0887 h 4.1899 c 0.5196,0 0.8438,-0.4989 0.9453,-1.0887 l 1.0236,-5.9503 c 0.2007,-1.1681 -1.0786,-1.0885 -1.2637,-1.0885 h -5.6004 c -0.1851,0 -1.4644,-0.0799 -1.2637,1.0885 z" /><path
       id="path208"
       style="fill:none;stroke:#231f20;stroke-width:0.5;stroke-linecap:butt;stroke-linejoin:miter;stroke-miterlimit:22.92558479;stroke-dasharray:none;stroke-opacity:1"
       d="m 208.3853,352.4216 -5.9502,-1.0236 c -0.5902,-0.1015 -1.0888,-0.4258 -1.0888,-0.9454 v -4.1899 c 0,-0.5196 0.4989,-0.8438 1.0888,-0.9453 l 5.9502,-1.0236 c 1.1681,-0.2007 1.0885,1.0786 1.0885,1.2637 v 5.6004 c 0,0.1851 0.0799,1.4644 -1.0885,1.2637 z m 0,9.3665 -5.9502,-1.0236 c -0.5902,-0.1015 -1.0888,-0.4258 -1.0888,-0.9454 v -4.1898 c 0,-0.5196 0.4989,-0.8439 1.0888,-0.9454 l 5.9502,-1.0233 c 1.1681,-0.201 1.0885,1.0783 1.0885,1.2634 v 5.6004 c 0,0.1854 0.0799,1.4644 -1.0885,1.2637 z m 0,9.3665 -5.9502,-1.0236 c -0.5902,-0.1012 -1.0888,-0.4255 -1.0888,-0.9453 v -4.1896 c 0,-0.5199 0.4989,-0.8442 1.0888,-0.9457 l 5.9502,-1.0233 c 1.1681,-0.2007 1.0885,1.0783 1.0885,1.2637 v 5.6001 c 0,0.1854 0.0799,1.4644 -1.0885,1.2637 z m 34.3023,-18.733 5.9502,-1.0236 c 0.5902,-0.1015 1.0888,-0.4258 1.0888,-0.9454 v -4.1899 c 0,-0.5196 -0.4989,-0.8438 -1.0888,-0.9453 l -5.9502,-1.0236 c -1.1681,-0.2007 -1.0885,1.0786 -1.0885,1.2637 v 5.6004 c 0,0.1851 -0.0799,1.4644 1.0885,1.2637 z m 0,9.3665 5.9502,-1.0236 c 0.5902,-0.1015 1.0888,-0.4258 1.0888,-0.9454 v -4.1898 c 0,-0.5196 -0.4989,-0.8439 -1.0888,-0.9454 l -5.9502,-1.0233 c -1.1681,-0.201 -1.0885,1.0783 -1.0885,1.2634 v 5.6004 c 0,0.1854 -0.0799,1.4644 1.0885,1.2637 z m 0,9.3665 5.9502,-1.0236 c 0.5902,-0.1012 1.0888,-0.4255 1.0888,-0.9453 v -4.1896 c 0,-0.5199 -0.4989,-0.8442 -1.0888,-0.9457 l -5.9502,-1.0233 c -1.1681,-0.2007 -1.0885,1.0783 -1.0885,1.2637 v 5.6001 c 0,0.1854 -0.0799,1.4644 1.0885,1.2637 z m -19.5443,-30.7599 -1.0233,-5.9502 c -0.1015,-0.5901 -0.4258,-1.0888 -0.9454,-1.0888 h -4.1898 c -0.5196,0 -0.8439,0.4989 -0.9454,1.0888 l -1.0236,5.9502 c -0.2007,1.1682 1.0783,1.0885 1.2637,1.0885 h 5.6004 c 0.1851,0 1.4644,0.08 1.2634,-1.0885 z m 11.6773,0 -1.0236,-5.9502 c -0.1014,-0.5901 -0.4257,-1.0888 -0.9453,-1.0888 h -4.1899 c -0.5196,0 -0.8439,0.4989 -0.9454,1.0888 l -1.0235,5.9502 c -0.2007,1.1682 1.0785,1.0885 1.2636,1.0885 h 5.6004 c 0.1851,0 1.4644,0.08 1.2637,-1.0885 z m 5.9551,32.5687 V 342.485 h -30.4784 v 30.4784 z m -14.0828,1.857 1.0233,5.9502 c 0.1014,0.5902 0.4257,1.0888 0.9453,1.0888 h 4.1899 c 0.5196,0 0.8439,-0.4989 0.9454,-1.0888 l 1.0235,-5.9502 c 0.2007,-1.1682 -1.0783,-1.0885 -1.2636,-1.0885 h -5.6004 c -0.1852,0 -1.4644,-0.08 -1.2634,1.0885 z m -11.6774,0 1.0236,5.9502 c 0.1015,0.5902 0.4258,1.0888 0.9454,1.0888 h 4.1899 c 0.5196,0 0.8438,-0.4989 0.9453,-1.0888 l 1.0236,-5.9502 c 0.2007,-1.1682 -1.0786,-1.0885 -1.2637,-1.0885 h -5.6004 c -0.1851,0 -1.4644,-0.08 -1.2637,1.0885 z" /><text
       id="text212"
       style="font-variant:normal;font-weight:normal;font-size:14.54300022px;font-family:Century725BT;-inkscape-font-specification:Century725BT-RomanCondensed;writing-mode:lr-tb;fill:#231f20;fill-opacity:1;fill-rule:nonzero;stroke:#231f20;stroke-width:0.5;stroke-linecap:butt;stroke-linejoin:miter;stroke-miterlimit:22.92558479;stroke-dasharray:none;stroke-opacity:1"
       transform="matrix(1,0,0,-1,555.8882,425.0421)"><tspan
         id="tspan210"
         y="0"
         x="0 6.3262048">15</tspan></text>
<path
       id="path214"
       style="fill:none;stroke:#231f20;stroke-width:0.5;stroke-linecap:butt;stroke-linejoin:miter;stroke-miterlimit:22.92558479;stroke-dasharray:none;stroke-opacity:1"
       d="M 284.6832,138.3403 H 313.861 V 110.9744 H 284.6832 Z" /><text
       id="text218"
       style="font-variant:normal;font-weight:normal;font-size:6.86199999px;font-family:CalistoMT;-inkscape-font-specification:CalistoMT;writing-mode:lr-tb;fill:#231f20;fill-opacity:1;fill-rule:nonzero;stroke:none"
       transform="matrix(0.7725,0,0,-1,289.0979,122.3141)"><tspan
         id="tspan216"
         y="0"
         x="0 3.678 8.9686022 12.756426 17.257898 21.834852">PASTEL</tspan></text>
<path
       id="path220"
       style="fill:#ffffff;fill-opacity:1;fill-rule:evenodd;stroke:#231f20;stroke-width:0.5;stroke-linecap:butt;stroke-linejoin:miter;stroke-miterlimit:22.92558479;stroke-dasharray:none;stroke-opacity:1"
       d="m 138.9002,416.7975 -5.9502,-1.0236 c -0.5902,-0.1015 -1.0888,-0.4257 -1.0888,-0.9453 v -4.1899 c 0,-0.5196 0.4989,-0.8439 1.0888,-0.9454 l 5.9502,-1.0236 c 1.1681,-0.2007 1.0885,1.0786 1.0885,1.2637 v 5.6004 c 0,0.1851 0.0799,1.4644 -1.0885,1.2637 z m 0,9.3665 -5.9502,-1.0236 c -0.5902,-0.1014 -1.0888,-0.4257 -1.0888,-0.9453 v -4.1899 c 0,-0.5196 0.4989,-0.8439 1.0888,-0.9454 l 5.9502,-1.0233 c 1.1681,-0.2009 1.0885,1.0783 1.0885,1.2634 v 5.6004 c 0,0.1854 0.0799,1.4644 -1.0885,1.2637 z m 0,9.3666 -5.9502,-1.0236 c -0.5902,-0.1012 -1.0888,-0.4255 -1.0888,-0.9454 v -4.1896 c 0,-0.5199 0.4989,-0.8442 1.0888,-0.9456 l 5.9502,-1.0233 c 1.1681,-0.2007 1.0885,1.0783 1.0885,1.2636 v 5.6002 c 0,0.1854 0.0799,1.4643 -1.0885,1.2637 z m 34.3023,-18.7331 5.9502,-1.0236 c 0.5902,-0.1015 1.0888,-0.4257 1.0888,-0.9453 v -4.1899 c 0,-0.5196 -0.4989,-0.8439 -1.0888,-0.9454 l -5.9502,-1.0236 c -1.1681,-0.2007 -1.0885,1.0786 -1.0885,1.2637 v 5.6004 c 0,0.1851 -0.0799,1.4644 1.0885,1.2637 z m 0,9.3665 5.9502,-1.0236 c 0.5902,-0.1014 1.0888,-0.4257 1.0888,-0.9453 v -4.1899 c 0,-0.5196 -0.4989,-0.8439 -1.0888,-0.9454 l -5.9502,-1.0233 c -1.1681,-0.2009 -1.0885,1.0783 -1.0885,1.2634 v 5.6004 c 0,0.1854 -0.0799,1.4644 1.0885,1.2637 z m 0,9.3666 5.9502,-1.0236 c 0.5902,-0.1012 1.0888,-0.4255 1.0888,-0.9454 v -4.1896 c 0,-0.5199 -0.4989,-0.8442 -1.0888,-0.9456 l -5.9502,-1.0233 c -1.1681,-0.2007 -1.0885,1.0783 -1.0885,1.2636 v 5.6002 c 0,0.1854 -0.0799,1.4643 1.0885,1.2637 z m -19.5443,-30.7599 -1.0233,-5.9502 c -0.1015,-0.5902 -0.4258,-1.0888 -0.9454,-1.0888 h -4.1898 c -0.5196,0 -0.8439,0.4989 -0.9454,1.0888 l -1.0236,5.9502 c -0.2007,1.1681 1.0783,1.0885 1.2637,1.0885 h 5.6004 c 0.1851,0 1.4644,0.0799 1.2634,-1.0885 z m 11.6773,0 -1.0236,-5.9502 c -0.1014,-0.5902 -0.4257,-1.0888 -0.9453,-1.0888 h -4.1899 c -0.5196,0 -0.8439,0.4989 -0.9454,1.0888 l -1.0236,5.9502 c -0.2006,1.1681 1.0786,1.0885 1.2637,1.0885 h 5.6004 c 0.1851,0 1.4644,0.0799 1.2637,-1.0885 z m 5.9551,32.5686 v -30.4784 h -30.4784 v 30.4784 z m -14.0829,1.857 1.0234,5.9502 c 0.1014,0.5902 0.4257,1.0888 0.9453,1.0888 h 4.1899 c 0.5196,0 0.8439,-0.4989 0.9454,-1.0888 l 1.0235,-5.9502 c 0.2007,-1.1681 -1.0783,-1.0885 -1.2636,-1.0885 h -5.6005 c -0.1851,0 -1.4643,-0.0799 -1.2634,1.0885 z m -11.6773,0 1.0236,5.9502 c 0.1015,0.5902 0.4258,1.0888 0.9454,1.0888 h 4.1899 c 0.5196,0 0.8438,-0.4989 0.9453,-1.0888 l 1.0236,-5.9502 c 0.2007,-1.1681 -1.0786,-1.0885 -1.2637,-1.0885 h -5.6004 c -0.1851,0 -1.4644,-0.0799 -1.2637,1.0885 z" /><text
       id="text224"
       style="font-variant:normal;font-weight:normal;font-size:14.54300022px;font-family:Century725BT;-inkscape-font-specification:Century725BT-RomanCondensed;writing-mode:lr-tb;fill:#231f20;fill-opacity:1;fill-rule:nonzero;stroke:#231f20;stroke-width:0.5;stroke-linecap:butt;stroke-linejoin:miter;stroke-miterlimit:22.92558479;stroke-dasharray:none;stroke-opacity:1"
       transform="matrix(1,0,0,-1,143.8506,425.0421)"><tspan
         id="tspan222"
         y="0"
         x="0 6.3262048">18</tspan></text>
<path
       id="path226"
       style="fill:none;stroke:#231f20;stroke-width:0.5;stroke-linecap:butt;stroke-linejoin:miter;stroke-miterlimit:22.92558479;stroke-dasharray:none;stroke-opacity:1"
       d="m 514.8133,477.2784 -5.9502,-1.0236 c -0.5902,-0.1015 -1.0888,-0.4258 -1.0888,-0.9454 v -4.1899 c 0,-0.5196 0.4989,-0.8438 1.0888,-0.9453 l 5.9502,-1.0236 c 1.1682,-0.2007 1.0885,1.0786 1.0885,1.2637 v 5.6004 c 0,0.1851 0.08,1.4644 -1.0885,1.2637 z m 0,9.3665 -5.9502,-1.0236 c -0.5902,-0.1015 -1.0888,-0.4258 -1.0888,-0.9454 v -4.1899 c 0,-0.5195 0.4989,-0.8438 1.0888,-0.9453 l 5.9502,-1.0233 c 1.1682,-0.201 1.0885,1.0783 1.0885,1.2634 v 5.6004 c 0,0.1854 0.08,1.4644 -1.0885,1.2637 z m 0,9.3665 -5.9502,-1.0236 c -0.5902,-0.1012 -1.0888,-0.4255 -1.0888,-0.9453 v -4.1896 c 0,-0.5199 0.4989,-0.8442 1.0888,-0.9457 l 5.9502,-1.0233 c 1.1682,-0.2007 1.0885,1.0783 1.0885,1.2637 v 5.6001 c 0,0.1854 0.08,1.4644 -1.0885,1.2637 z m 34.3024,-18.733 5.9502,-1.0236 c 0.5901,-0.1015 1.0887,-0.4258 1.0887,-0.9454 v -4.1899 c 0,-0.5196 -0.4989,-0.8438 -1.0887,-0.9453 l -5.9502,-1.0236 c -1.1682,-0.2007 -1.0886,1.0786 -1.0886,1.2637 v 5.6004 c 0,0.1851 -0.0799,1.4644 1.0886,1.2637 z m 0,9.3665 5.9502,-1.0236 c 0.5901,-0.1015 1.0887,-0.4258 1.0887,-0.9454 v -4.1899 c 0,-0.5195 -0.4989,-0.8438 -1.0887,-0.9453 l -5.9502,-1.0233 c -1.1682,-0.201 -1.0886,1.0783 -1.0886,1.2634 v 5.6004 c 0,0.1854 -0.0799,1.4644 1.0886,1.2637 z m 0,9.3665 5.9502,-1.0236 c 0.5901,-0.1012 1.0887,-0.4255 1.0887,-0.9453 v -4.1896 c 0,-0.5199 -0.4989,-0.8442 -1.0887,-0.9457 l -5.9502,-1.0233 c -1.1682,-0.2007 -1.0886,1.0783 -1.0886,1.2637 v 5.6001 c 0,0.1854 -0.0799,1.4644 1.0886,1.2637 z m -19.5444,-30.7599 -1.0233,-5.9502 c -0.1014,-0.5902 -0.4257,-1.0888 -0.9453,-1.0888 h -4.1899 c -0.5196,0 -0.8439,0.4989 -0.9454,1.0888 l -1.0236,5.9502 c -0.2007,1.1682 1.0783,1.0885 1.2637,1.0885 h 5.6004 c 0.1851,0 1.4644,0.08 1.2634,-1.0885 z m 11.6774,0 -1.0236,-5.9502 c -0.1015,-0.5902 -0.4258,-1.0888 -0.9454,-1.0888 h -4.1899 c -0.5196,0 -0.8438,0.4989 -0.9453,1.0888 l -1.0236,5.9502 c -0.2007,1.1682 1.0786,1.0885 1.2637,1.0885 h 5.6004 c 0.1851,0 1.4644,0.08 1.2637,-1.0885 z m 5.955,32.5687 v -30.4784 h -30.4784 v 30.4784 z m -14.0828,1.857 1.0233,5.9502 c 0.1015,0.5901 0.4258,1.0888 0.9453,1.0888 h 4.1899 c 0.5196,0 0.8439,-0.4989 0.9454,-1.0888 l 1.0236,-5.9502 c 0.2007,-1.1682 -1.0783,-1.0885 -1.2637,-1.0885 h -5.6004 c -0.1851,0 -1.4644,-0.08 -1.2634,1.0885 z m -11.6773,0 1.0235,5.9502 c 0.1015,0.5901 0.4258,1.0888 0.9454,1.0888 h 4.1899 c 0.5196,0 0.8439,-0.4989 0.9453,-1.0888 l 1.0236,-5.9502 c 0.2007,-1.1682 -1.0785,-1.0885 -1.2636,-1.0885 h -5.6005 c -0.1851,0 -1.4643,-0.08 -1.2636,1.0885 z" /><path
       id="path228"
       style="fill:none;stroke:#231f20;stroke-width:0.5;stroke-linecap:butt;stroke-linejoin:miter;stroke-miterlimit:22.92558479;stroke-dasharray:none;stroke-opacity:1"
       d="m 172.2988,471.4926 -5.9502,-1.0236 c -0.5901,-0.1015 -1.0888,-0.4258 -1.0888,-0.9454 v -4.1899 c 0,-0.5196 0.4989,-0.8438 1.0888,-0.9453 l 5.9502,-1.0236 c 1.1682,-0.2007 1.0885,1.0786 1.0885,1.2637 v 5.6004 c 0,0.1851 0.08,1.4644 -1.0885,1.2637 z m 0,9.3665 -5.9502,-1.0236 c -0.5901,-0.1015 -1.0888,-0.4258 -1.0888,-0.9454 v -4.1898 c 0,-0.5196 0.4989,-0.8439 1.0888,-0.9454 l 5.9502,-1.0233 c 1.1682,-0.201 1.0885,1.0783 1.0885,1.2634 v 5.6004 c 0,0.1854 0.08,1.4644 -1.0885,1.2637 z m 0,9.3665 -5.9502,-1.0236 c -0.5901,-0.1012 -1.0888,-0.4255 -1.0888,-0.9453 v -4.1896 c 0,-0.5199 0.4989,-0.8442 1.0888,-0.9457 l 5.9502,-1.0233 c 1.1682,-0.2007 1.0885,1.0783 1.0885,1.2637 v 5.6001 c 0,0.1854 0.08,1.4644 -1.0885,1.2637 z m 34.3024,-18.733 5.9502,-1.0236 c 0.5901,-0.1015 1.0888,-0.4258 1.0888,-0.9454 v -4.1899 c 0,-0.5196 -0.4989,-0.8438 -1.0888,-0.9453 l -5.9502,-1.0236 c -1.1682,-0.2007 -1.0885,1.0786 -1.0885,1.2637 v 5.6004 c 0,0.1851 -0.08,1.4644 1.0885,1.2637 z m 0,9.3665 5.9502,-1.0236 c 0.5901,-0.1015 1.0888,-0.4258 1.0888,-0.9454 v -4.1898 c 0,-0.5196 -0.4989,-0.8439 -1.0888,-0.9454 l -5.9502,-1.0233 c -1.1682,-0.201 -1.0885,1.0783 -1.0885,1.2634 v 5.6004 c 0,0.1854 -0.08,1.4644 1.0885,1.2637 z m 0,9.3665 5.9502,-1.0236 c 0.5901,-0.1012 1.0888,-0.4255 1.0888,-0.9453 v -4.1896 c 0,-0.5199 -0.4989,-0.8442 -1.0888,-0.9457 l -5.9502,-1.0233 c -1.1682,-0.2007 -1.0885,1.0783 -1.0885,1.2637 v 5.6001 c 0,0.1854 -0.08,1.4644 1.0885,1.2637 z m -19.5443,-30.7599 -1.0234,-5.9502 c -0.1014,-0.5901 -0.4257,-1.0888 -0.9453,-1.0888 h -4.1899 c -0.5196,0 -0.8439,0.4989 -0.9454,1.0888 l -1.0235,5.9502 c -0.2007,1.1682 1.0783,1.0885 1.2636,1.0885 h 5.6004 c 0.1852,0 1.4644,0.08 1.2635,-1.0885 z m 11.6773,0 -1.0236,-5.9502 c -0.1015,-0.5901 -0.4258,-1.0888 -0.9454,-1.0888 h -4.1899 c -0.5196,0 -0.8438,0.4989 -0.9453,1.0888 l -1.0236,5.9502 c -0.2007,1.1682 1.0786,1.0885 1.2637,1.0885 h 5.6004 c 0.1851,0 1.4644,0.08 1.2637,-1.0885 z m 5.955,32.5687 V 461.556 h -30.4784 v 30.4784 z m -14.0828,1.857 1.0233,5.9502 c 0.1015,0.5901 0.4258,1.0888 0.9454,1.0888 h 4.1898 c 0.5196,0 0.8439,-0.4989 0.9454,-1.0888 l 1.0236,-5.9502 c 0.2007,-1.1682 -1.0783,-1.0885 -1.2637,-1.0885 h -5.6004 c -0.1851,0 -1.4644,-0.08 -1.2634,1.0885 z m -11.6773,0 1.0236,5.9502 c 0.1014,0.5901 0.4257,1.0888 0.9453,1.0888 h 4.1899 c 0.5196,0 0.8439,-0.4989 0.9454,-1.0888 l 1.0236,-5.9502 c 0.2006,-1.1682 -1.0786,-1.0885 -1.2637,-1.0885 h -5.6004 c -0.1851,0 -1.4644,-0.08 -1.2637,1.0885 z" /><text
       id="text232"
       style="font-variant:normal;font-weight:normal;font-size:14.54300022px;font-family:Century725BT;-inkscape-font-specification:Century725BT-RomanCondensed;writing-mode:lr-tb;fill:#231f20;fill-opacity:1;fill-rule:nonzero;stroke:#231f20;stroke-width:0.5;stroke-linecap:butt;stroke-linejoin:miter;stroke-miterlimit:22.92558479;stroke-dasharray:none;stroke-opacity:1"
       transform="matrix(1,0,0,-1,286.4874,223.8596)"><tspan
         id="tspan230"
         y="0"
         x="0 6.3262048">03</tspan></text>
<text
       id="text236"
       style="font-variant:normal;font-weight:normal;font-size:14.54300022px;font-family:Century725BT;-inkscape-font-specification:Century725BT-RomanCondensed;writing-mode:lr-tb;fill:#231f20;fill-opacity:1;fill-rule:nonzero;stroke:#231f20;stroke-width:0.5;stroke-linecap:butt;stroke-linejoin:miter;stroke-miterlimit:22.92558479;stroke-dasharray:none;stroke-opacity:1"
       transform="matrix(1,0,0,-1,175.9334,480.7233)"><tspan
         id="tspan234"
         y="0"
         x="0 6.3262048">20</tspan></text>
</g></svg>